# FamiTracker text export 0.4.2

# Song information
TITLE           "pentup"
AUTHOR          ""
COPYRIGHT       ""

# Song comment
COMMENT ""

# Global settings
MACHINE         0
FRAMERATE       0
EXPANSION       0
VIBRATO         1
SPLIT           32

# Macros
MACRO       0   0  -1  -1   0 : 15 13 11 10 8 7 5 4
MACRO       0   1  -1  -1   0 : 12
MACRO       0   2  -1  -1   0 : 15
MACRO       0   3  -1  -1   0 : 1 1 2 3 4
MACRO       0   4  -1  -1   0 : 11 0 0
MACRO       0   5  -1  -1   0 : 11 0 0
MACRO       0   6  -1  -1   0 : 1 1 2 3 5
MACRO       0   7  -1  -1   0 : 11 9 6 2
MACRO       0   8  -1  -1   0 : 10
MACRO       0   9  -1  -1   0 : 7 5 2 0
MACRO       0  10  -1  -1   0 : 8 3
MACRO       0  11  -1  -1   0 : 0 1 1 2 2 3 4
MACRO       0  12  -1  -1   0 : 0 0 0 1 2 3 4 5
MACRO       0  13  -1  -1   0 : 0 0 1 1 2
MACRO       0  14  -1  -1   0 : 1 1 2 3
MACRO       0  15  -1  -1   0 : 12 6 5 3 1
MACRO       1   0  -1  -1   0 : -2 0
MACRO       1   1  -1  -1   0 : 16
MACRO       1   2   0  -1   0 : -1 -4 3
MACRO       1   3  -1  -1   0 : 6 5 4 4 3 2 -1 -6
MACRO       1   4  -1  -1   0 : 9 6 -15 -15 -15
MACRO       1   5  -1  -1   0 : 12
MACRO       1   6  -1  -1   0 : 7 7
MACRO       1   7  -1  -1   0 : 12 0
MACRO       2   0  -1  -1   0 : 0 -1 1 1 0 0 0 0 0 1 0 1 5 -1 -8 -10 -10 -8 1 0 -15 -11 0 0 -6 -3 -13 -13 1 -3 -8 0
MACRO       2   1  -1  -1   0 : 0
MACRO       2   2  -1  -1   0 : 25 -8
MACRO       2   3  -1  -1   0 : -64 -45 -35 -27 11 57 75
MACRO       2   4  -1  -1   0 : 27 21
MACRO       2   5  -1  -1   0 : 23
MACRO       2   6  -1  -1   0 : -1
MACRO       2   7  -1  -1   0 : 3
MACRO       2   8  -1  -1   0 : 0 8 15 -5 1 10 1
MACRO       3   0  -1  -1   0 : 0 0 0 5 -13 5 -21 13
MACRO       3   1  -1  -1   0 : 113
MACRO       3   2  -1  -1   0 : 1
MACRO       3   3  -1  -1   0 : -11 8 13 20 27
MACRO       3   4  -1  -1   0 : 6
MACRO       3   5  -1  -1   0 : 5
MACRO       4   0  -1  -1   0 : 2
MACRO       4   1  -1  -1   0 : 3
MACRO       4   2  -1  -1   0 : 0
MACRO       4   3  -1  -1   0 : 0
MACRO       4   4  -1  -1   0 : 0
MACRO       4   5   2  -1   0 : 2 1 0
MACRO       4   6  -1  -1   0 : 1
MACRO       4   7  -1  -1   0 : 1
MACRO       4   8  -1  -1   0 : 1
MACRO       4   9  -1  -1   0 : 1
MACRO       4  10  -1  -1   0 : 2

# DPCM samples
DPCMDEF   0  2865 "rec_01_max2.dmc"
DPCM : 55 FD DF 2A 55 55 55 AA AA AA AA AA AA 52 95 AA AA 55 AA AA AA D2 AA AA AA 52 55 55 55 55 55 95
DPCM : AA AA 6A 55 55 95 6A 55 55 A5 AA AA AA A6 AA AA 5A A5 AA AA AA AA AA 56 FD FE 07 00 00 00 F8 FF
DPCM : 07 00 00 00 FF 7F 12 00 14 DD FF 57 08 00 00 F0 DF 2D 09 02 00 F7 DF 25 81 10 D5 F6 BD A6 28 D2
DPCM : 54 6B 4E 33 8D 2A 59 D5 B1 86 29 D6 E8 C6 BB 4F A9 28 CB BA 73 08 02 00 A0 AE 55 31 EE FB 9F 37
DPCM : 08 00 00 00 3C CF 30 02 00 DC F9 96 23 0C E3 B8 E3 18 C7 38 C6 79 DF 19 08 00 10 FF 3E 42 00 00
DPCM : 00 EE 75 44 E9 BF 7F 0C 01 00 00 00 00 00 D0 EF 9D A2 88 D3 BA CB 00 02 00 E8 7B 46 63 4C F3 DE
DPCM : 69 04 21 9E F7 18 21 25 54 75 59 A5 14 00 80 EE 5A 45 04 00 00 00 00 00 00 00 D8 A7 55 15 21 00
DPCM : 00 BC EF 96 22 94 E2 AE 5F 5B 24 40 12 81 7E BB A8 42 AA EB 5E E3 08 C3 58 F3 4C 4B 1A EA BC AF
DPCM : 2D 85 00 D6 FC CF 37 08 B0 EA 6B 5F B5 00 81 FA FF 9D 24 C0 76 DD 50 00 02 00 00 00 00 00 00 00
DPCM : E0 FF FF 3B EF 7F AF 11 00 00 00 00 00 A0 B4 F9 FD FF FF FF 3F 20 A0 52 9D 04 00 00 AC 5B 15 81
DPCM : 00 00 00 00 00 FC FF FF FF EF DF 0A 00 00 00 00 00 00 00 FD FF FF FF FF 1F 49 5B A1 04 00 00 DA
DPCM : 4F 40 00 88 00 00 00 00 80 FF FF FF FF AA 5D 09 00 00 00 00 00 7C FB FD FF FF FF 24 20 50 D5 5B
DPCM : A5 10 00 72 EF 0A 10 40 20 00 00 00 00 E0 FF FF FF 5F D9 55 01 00 00 00 00 F8 FF 7D 7D FF FF 0B
DPCM : 01 00 00 E0 FF FF 59 D0 02 40 04 08 00 00 00 F0 FF FF FF 3B 00 A0 0B 00 00 00 F8 FF FF 3F 41 A9
DPCM : 58 00 00 00 F8 FF FF FF 07 00 80 0A A8 E8 A7 17 01 00 00 E0 FF FF FF 81 02 FE 00 00 00 C0 FF FF
DPCM : FF 01 E0 55 00 00 80 FF FF FF 07 8C FE 01 00 00 FE FF FF CF 02 05 00 00 00 80 FF FF FF 03 1E E0
DPCM : 00 00 00 FE FF FF 07 08 F0 00 00 80 FF FF FF 83 03 3F 00 00 FE FF 03 07 FC FF 3F 30 00 03 00 00
DPCM : 00 E0 FF FF FF 00 00 3C 00 00 C0 FF FF FF 00 00 38 00 00 C0 FF FF 7F 00 00 54 00 00 F0 FF FF 7F
DPCM : 00 00 5B 0B 40 ED 55 09 00 00 F8 FF FF 07 00 84 1F 00 80 FF FF FF 00 00 00 1F B2 FE FF FF 07 00
DPCM : 00 C0 03 F6 FF FF 7F 00 00 FE 7F C0 FF FF 3F 00 00 00 00 00 00 F8 FF FF 01 00 CC 3F 00 F0 FF FF
DPCM : 0F 00 C0 F9 07 80 FF FF 1F 00 00 F8 FF 83 FF FF 07 00 00 F0 FF FF FF 07 00 00 80 FF FF 07 00 00
DPCM : 00 00 00 FC FF FF 01 00 80 3F F0 FF FF 7F 00 00 00 F0 FF FF FF 03 00 00 00 00 FC FF FF 07 00 FE
DPCM : 06 00 C0 FF FF FF FF 3F 00 00 E0 FF FF 01 00 00 00 00 00 FE FF FF 00 00 00 3F FC FF FF 3F 00 00
DPCM : 00 F0 FF FF FF 07 00 00 C0 FF FF EF 1F 00 00 00 F8 FF FF 1F 00 00 00 FC FF FF 3F 00 00 80 FF FF
DPCM : 00 00 4A 00 00 FF FF 1F 00 E0 F0 9F FF FF 3F 00 00 00 FF BF F4 67 0B 00 00 E0 FF FF 7F 00 00 00
DPCM : E0 FF FF FF 03 00 00 00 FF FF FF 1F 00 00 E0 FF FF FF 01 00 20 09 41 25 00 00 F8 FF FF 01 00 7C
DPCM : 7C F0 FF FF 01 00 00 FC 9F FF FF 0F 00 00 E0 FA FF 7F 00 00 00 FE FF FF 03 00 00 C0 FF FF FF 01
DPCM : 00 00 C0 FF FF FF 07 00 00 FC FF FF FF 00 00 80 10 21 09 00 00 FE FF 3F 00 80 0F 2F FF FF 7F 00
DPCM : 00 00 FF E3 FF FF 01 00 00 F8 FF FF FF 01 00 00 E0 FF FF 0F 04 00 00 F0 FF FF 07 00 01 00 C0 FF
DPCM : FF 3F FF FF 00 28 FC 07 00 40 52 95 94 00 00 E0 FF FF 03 00 F8 70 F1 FF FF 03 00 00 FC 3F FF FF
DPCM : 01 00 00 FE DF 81 FF 02 00 00 FC FF FF 15 28 00 00 F8 FF FF 0F 00 00 0F F8 FF FF 03 00 C0 FF FF
DPCM : FF FF 00 00 00 FF FF FF 00 00 00 80 AE 00 00 80 FF FF 03 00 FC 51 F0 FF FF 03 00 00 FE 1F FC FF
DPCM : 03 00 80 FF 67 C9 FF 03 00 00 FE FF 3F 3D 28 00 00 F8 FF FF 01 BE 01 00 F8 FF FF 01 00 80 FF FF
DPCM : FF 07 00 80 7F A5 FF FF 07 00 80 F5 0F 90 06 00 68 A9 05 00 FF FF 07 00 F8 A7 C0 FF FF 0F 00 00
DPCM : F4 7F FC FF 07 00 00 FC AF D6 FF 07 00 00 F0 FF BF FC 01 00 00 F0 FF FF FF 0F 00 00 80 FF FF 15
DPCM : 80 00 F8 E0 FF FF 40 E0 0F 7C F0 FF 3F 00 00 FE 1F C0 1F 00 80 92 3D 00 F8 FF 7F 00 00 FC 01 FC
DPCM : FF FF 03 00 00 6A FF FF FF 03 00 80 43 84 FF FF 0F 00 00 7E C4 FF FF 7F 00 00 00 BF FF FF FF 01
DPCM : 00 00 80 FF FF FF 03 00 00 FE FF FF FF 00 00 F8 7F 00 00 AA 00 D2 56 04 01 00 F0 FF FF 03 00 18
DPCM : 00 80 FF FF 3F 00 00 00 00 F0 FF FF C7 0B 00 00 00 FC FF 7F 44 02 00 00 F0 FF FF FF 01 00 00 00
DPCM : FF FF FF 0F 00 00 FE FF FF FF 03 00 00 20 49 D2 AD 55 08 10 00 00 00 80 FF FF 7F 20 00 00 00 E0
DPCM : FF FF 3F 00 00 00 00 00 FC FF FF 07 00 00 00 00 80 FF EB 7F B5 A2 25 22 5A D1 52 DF 7F 15 50 AB
DPCM : 92 00 80 F4 0A C0 FF 2F 41 20 11 00 00 5A FF AB 44 45 04 00 00 00 00 D0 AF FE 5D A2 22 50 AB 4A
DPCM : BB 94 6A 21 25 D5 EC D4 55 D6 BA 55 AD B6 6A 4B D5 16 6D 55 AA A5 AA 14 51 23 2B 95 54 2B A9 65
DPCM : 95 B6 B4 AA 96 54 AA D2 56 A9 CA A4 54 00 00 00 00 50 55 5B AB DA 55 6B 45 AD 5A D5 AD 24 B5 AB
DPCM : EE 56 55 A9 48 FE A8 BA 2A D8 3A 40 FF 03 B6 08 B2 14 52 6A D5 24 54 00 00 00 00 00 00 00 00 00
DPCM : 00 00 00 00 14 00 55 13 00 68 8D 8E 96 00 05 B4 AA AA 57 97 4A DB 8E AA A5 2A 7D 90 0E 2F 2A AC
DPCM : 85 16 D8 64 01 00 00 00 00 00 00 C0 6A DB 5D 25 55 A5 A4 6A AA 6A 69 B5 56 5D 4D 4A 4B 4D 36 49
DPCM : 69 25 4D A9 2A 55 55 01 D4 B2 74 5A 2C 2D 09 00 00 00 00 00 00 00 B0 4E A5 B2 54 AD A9 59 AB B4
DPCM : AA 5A AB A6 AA 4A 4A A5 4A 15 00 00 80 AA 55 AB 4A 55 55 55 AA 0A 00 00 00 50 D5 AA B5 AE A5 AA
DPCM : AA 2A 55 A9 34 55 CD 2A D5 AA AA 5A 55 55 AB AA AA 54 55 55 AA AA 6A 55 B5 AA AA AA 2A 55 55 55
DPCM : 55 55 55 55 A5 5A 95 54 AB 52 AB AA 2A 55 55 53 55 55 55 AA AA AA AA 56 55 55 55 55 55 A9 56 56
DPCM : 55 55 55 D5 AA AA AA AA AA AA AA AA AA AA AA AA AA 2A 55 4B 55 55 A5 6A 95 54 AB 52 55 55 55 55
DPCM : 55 55 55 05 00 00 00 00 00 00 55 55 55 55 AB AA AA AA AA 55 59 55 55 55 55 55 55 55 B5 4A AB 2C
DPCM : 55 55 55 55 55 55 55 55 55 55 55 A9 AA AA AA AA 52 55 55 55 55 55 55 55 55 55 55 55 55 55 55 55
DPCM : 55 55 55 55 55 55 55 55 55 55 55 55 55 55 55 55 55 55 55 80 AA AA AA AA AA AA AA AA AA AA AA AA
DPCM : AA AA AA AA AA AA AA AA AA AA 0A 55 55 A9 AA A8 AA 0A 00 00 00 00 00 00 00 50 55 45 55 55 55 55
DPCM : 55 55 55 55 55 55 55 55 55 55 55 55 55 55 55 55 55 55 55 55 55 55 55 55 55 55 55 55 55 B5 AA AA
DPCM : AA AA AA AA AA AA AA AA 54 55 55 55 55 55 55 55 15 00 00 00 00 00 00 00 00 00 00 00 00 00 00 00
DPCM : 00 00 00 00 00 00 00 00 00 00 54 55 55 55 55 AB AA AA AA AA AA AA AA AA AA 6A AA AA AA AA AA AA
DPCM : AA AA AA AA AA AA AA 2A 55 55 55 55 55 55 55 55 55 55 55 55 55 55 55 55 55 D5 AA AA AA AA AA AA
DPCM : AA AA AA AA AA AA AA AA AA AA AA AA AA AA AA AA AA AA AA AA AA AA AA AA AA AA AA AA 52 55 55 55
DPCM : 55 55 55 B5 AA AA AA AA AA AA AA AA AA AA AA AA AA AA AA AA AA AA AA AA AA 4A 55 55 55 55 55 55
DPCM : 55 55 55 55 55 55 55 55 55 55 55 55 55 55 55 55 55 55 55 55 55 55 55 55 55 55 55 55 55 55 55 55
DPCM : 45 00 00 00 00 00 00 00 00 00 00 00 00 50 55 55 55 55 55 55 55 55 55 55 55 55 55 55 55 55 55 55
DPCM : 55 55 55 55 55 55 55 55 55 15 00 00 00 00 00 00 00 00 40 55 55 55 55 55 55 55 55 55 55 55 55 55
DPCM : 55 55 55 55 55 55 55 55 55 55 05 00 00 00 00 00 00 00 00 00 00 00 00 00 00 00 00 08 A0 02 A2 2A
DPCM : 54 01 00 00 00 00 00 00 00 00 00 00 00 00 00 00 00 00 00 00 00 00 00 00 00 50 05 00 00 2A 54 55
DPCM : 2D 55 55 2D D5 34 55 55 55 AB B2 4A 2D B5 2A AB D2 4A 75 AC AA 4A 33 55 9D AE D2 9F 80 1D AC 09
DPCM : 56 2A D5 CA D3 58 B3 38 96 8E E5 CB F0 89 11 9E A8 E3 79 1E 84 E3 CF F7 E3 03 60 08 87 00 20 00
DPCM : 6B 79 F0 71 C1 19 8E 03 07 8F 4F 78 94 39 38 30 0C 03 ED F0 D4 E3 18 1C 07 03 00 18 CC 60 9E 87
DPCM : C3 8F 51 0E 1E 7B 3C 96 47 53 1E 2D AE 1E 86 D6 D2 22 1B 5E 0B 43 0F 67 00 00 00 00 00 00 00 00
DPCM : 00 DE DF EB B6 A5 8A 41 29 AA A4 AA ED E6 6B 6D AD AA 52 56 AA A0 82 56 2A B1 AA 24 05 00 00 00
DPCM : 00 00 00 00 FF FF FF FF 0F 00 00 00 00 00 00 DE 7F FC F7 A0 05 12 26 20 DA E5 2F 9F 7E BC D0 C2
DPCM : 8A AD FE FE FF 97 2A A9 80 04 54 C9 0A 95 28 51 15 51 14 02 00 00 00 00 FF FF FF 7F 1F 00 00 00
DPCM : 00 00 00 FE FF 4F 95 25 00 00 00 00 00 EE FF ED 4A 2A 52 89 24 DD FE BB DB FF 3F 5A 00 80 49 54
DPCM : 65 4F 2F 14 94 A0 48 44 52 01 00 00 00 80 FF FF FF 3F 1D 00 00 00 00 00 B0 FE FF FF 01 00 04 05
DPCM : 00 00 F0 FF DB B4 6D 09 00 00 36 DD FA F7 FF AF 00 12 50 6B 57 B5 7A F7 8A 42 94 D4 AA 52 AA AE
DPCM : 92 00 12 A9 04 00 00 00 E0 FF FF 5F B9 03 00 00 00 80 EB 95 FE FF 0F 00 00 D9 52 01 00 BC FF AA
DPCM : 48 B6 36 51 D1 AA 6A AB A7 5E 5C 7D B5 54 41 65 A5 4D AF B6 B6 5D 6A 88 A0 AB 4A A5 A6 9A 28 81
DPCM : 88 44 00 00 00 00 E0 FF FF 6F EA 03 00 00 00 C0 EA A6 FF FF 3F 00 00 00 B0 00 00 FC FF 3F 00 24
DPCM : 5D 14 00 F0 FF FF 7F 55 AA 48 00 00 50 FF FF EF B7 6F 03 04 80 FA 5A 69 6A 7B 93 00 00 50 AA 02
DPCM : 00 00 00 00 F0 FF FF 07 BA 0A 01 00 00 C0 FE 93 7E FB 0F 05 00 00 FC 4A C0 5D FF 7F 05 14 55 17
DPCM : AA B4 F5 F7 CA 4A 52 95 84 2C 75 F7 96 B2 54 AD CA 94 4A DA AA 94 AA 54 95 22 49 55 95 24 09 00
DPCM : 00 00 00 00 00 00 00 FC FF 7F 00 E8 C2 0F 00 00 80 FF A5 A2 D2 DD 4A 89 8A BA 5A 69 A5 AA AB AA
DPCM : 4A 55 55 D5 6A AB AD 2A 55 A9 96 2D 2A 49 AA 6A 55 4A 52 AA AA 2A A5 4A 55 55 00 00 00 00 00 00
DPCM : DC 77 A5 90 92 B5 56 A9 48 05 B5 D6 52 2A 55 B5 6D 55 25 A9 DA D6 AA 4A AA DA D6 4A 52 AA DA AA
DPCM : 2A 49 A9 AA 56 55 2A 01 40 55 B5 54 55 D5 6A 95 2A 55 AD 5A A9 12 00 80 AA AA 0A 02 00 00 00 00
DPCM : 00 A0 AA 56 6A AA AA 56 D5 AA AA 56 95 2A 55 55 6B 55 55 A5 AA AA AA AA AA AA AA 2A 55 95 5A 55
DPCM : 55 A5 AA AA AA AA AA 00 00 00 00 00 00 00 00 00 00 00 00 00 00 00 00 00 00 55 55 55 55 AB 5A 55
DPCM : 55 55 55 B5 AA 52 95 AA 55 55 A9 4A 0B 00 00 00 00
DPCMDEF   1  1633 "bass3.dmc"
DPCM : F5 00 FA 00 0F 5B FF FF FF FF FF FF 0A 00 00 FD FF D5 BA 05 D8 FF FF FF FF 7F 45 90 A2 2A 29 20
DPCM : C0 03 3C 00 00 00 56 AD AA 56 EB FF FF FF 00 00 00 A8 4A 11 69 55 55 55 A5 AA B5 8B 40 77 55 F5
DPCM : 0F AF 0F 78 FA FF FF FF 7F 05 00 80 52 FA FF FF 92 2A DD 6D 55 AD AA 6A 55 D5 DD 12 55 29 11 00
DPCM : 1E FE 61 4B 5F EF 6A 55 55 B5 AA B6 FF FF FF 8F 40 44 45 AA 4A A5 44 44 44 50 44 5A AD 2A AD 7F
DPCM : 80 7F 84 A7 FF FF 3F FC 55 55 15 01 C0 EE 97 12 01 DD FF D5 EF B5 14 11 00 01 14 11 95 88 00 F4
DPCM : E1 0F F8 00 40 A5 88 AA FB FF 7B AB 00 50 0A 24 52 DA BA 2A D5 AA AA D2 BA 22 D0 AD AD EA BF 02
DPCM : FE 03 FE FF FF FF FF 17 11 02 00 40 F7 6F 55 AB B6 B6 56 B5 AA B4 54 B5 5A 4B 44 A4 A5 08 F0 4F
DPCM : FF 50 7F 74 F7 FD 55 A5 AA AA 5F A2 5D 02 40 04 A5 AA D6 6A 55 29 A9 12 29 12 69 AD D6 FE 23 F0
DPCM : 1F E0 FF FF 1F FE FF FF FF FF FF FF FF 8A F5 44 BA FF FF FF FF FF FF FF 84 40 08 44 04 80 FB 3F
DPCM : 05 A0 02 00 44 C0 BA BF FD AF 02 A9 02 80 AA AA 2A 51 55 55 A9 6A AB 88 A8 AA AA 76 EF 1F E0 FF
DPCM : 11 EE FF FF FF AF 54 A4 00 A0 BB 4A 88 4A AB B5 DB DD 5A 55 55 D5 AA 5A 25 45 22 52 00 D8 FF 3F
DPCM : D0 FD D7 D6 FF 95 92 D6 AE 92 D6 11 00 80 10 49 55 B5 6A 6B B5 AA 4A 95 94 88 AA 7B BF F0 B0 A7
DPCM : 50 FF 0F FF FF AB 2A 52 DC FF 7F 04 00 A8 52 D2 DA DD BA DD D5 AA 12 29 22 22 02 00 40 FD 3F 01
DPCM : 00 4B 11 81 6A 6B 77 6F 89 54 89 10 91 94 A8 5A 55 A5 AA 5A AB A4 AA AA 4A AA F5 FF 7F A0 5F A5
DPCM : BD FF FB AD AD 2A 05 D2 BD 17 01 A2 AA 52 69 D5 6D 6D 6D 6D AD 56 2D 95 54 49 01 00 EB FF 1F 00
DPCM : EE FF F7 7E AB 75 5B A5 54 4A 84 40 44 84 88 A4 4A 55 AD 5A AD D5 AA AA 52 D5 FD 7F 40 52 AA 6A
DPCM : E1 FE FF FF AE 92 6A FD FF FF FF 23 82 48 91 A8 AA AA 56 AB 56 55 55 95 4A 89 00 A0 FF 47 00 00
DPCM : 50 4B 04 A4 75 BF AA 54 52 A2 52 2A A5 52 A2 AA AA AA 2A A5 AA AA 2A 55 55 DD FF 7E A9 52 ED FE
DPCM : D3 6F 6D 55 A9 6A F7 B7 14 81 A8 56 A9 94 4A B5 5A 55 5B B5 55 AB AA AA 4A 0A 48 F7 FF 42 80 AA
DPCM : FB DD BB DA BD AB 52 22 22 25 25 91 22 22 91 92 2A 95 2A 55 55 AD AA 6A F5 5E FF 4A 11 91 14 FE
DPCM : FF EE AE 56 B7 FE FF 4F 88 A8 55 4A A4 48 A4 A4 4A AA 54 55 AA AA 52 55 52 A0 DA FB 45 04 00 52
DPCM : 2A 22 D5 AA 6A 29 11 29 2A 55 55 29 29 55 69 55 4B 95 6A 55 A9 56 55 75 1F FE 6F 8B A4 FA F0 77
DPCM : B7 55 A5 5A 7F BF 55 8A 24 D5 AA AA 52 25 55 55 D5 2A AD 5A 55 A5 55 29 29 ED DE 5F 29 22 D2 EA
DPCM : DE DF AD 56 15 89 14 95 AA 4A 95 94 A8 A8 94 94 4A A9 54 A5 AA AA B5 0F 5F 77 AB 44 08 4B BF DF
DPCM : DD D5 DA BD BF AD 55 52 54 55 55 52 92 22 29 29 A9 92 92 52 A9 52 29 29 D2 76 6F 89 10 81 94 94
DPCM : 54 EB 56 49 81 88 94 AA AA AA 4A 4A 4A 55 55 A5 5A 55 AA AA 5A AD 87 AF BB 5B A5 FA 02 DA BA DB
DPCM : 5A AD DD 7D AD 2A 2D 55 D5 56 D5 52 A9 AA 2A AD 54 AB 54 A9 4A 95 4A 55 EB FE 4B 89 14 AA B5 FF
DPCM : BB AA 4A 44 88 54 AA B5 AA 4A 25 25 55 52 55 2A 55 2A 55 A5 BA 87 C7 DB 56 29 01 3C BC D6 ED EE
DPCM : EE EE D6 AD 96 56 AB AA 56 55 95 4A 49 95 94 4A 49 A9 A8 A4 A4 44 AA B4 5B A7 44 44 44 8A 4A 5A
DPCM : AF 25 45 04 A2 AA AA AA A5 2A A5 52 52 55 55 55 55 55 D5 D6 C3 D3 6D 6D AD D6 03 A1 6A 75 6B 77
DPCM : 77 6B 6B 55 B5 AA 6A B5 56 AB 55 A5 55 55 5A 55 55 AA AA 54 AA 54 AD AD BB 52 25 A5 AA BA FB AA
DPCM : 2A 52 44 28 55 D5 6A AD 2A 95 2A 95 AA 2A 55 55 A9 AA EE A1 74 AB 76 95 08 4E 61 A9 B6 76 77 77
DPCM : B7 5B B5 AA AA 5A 55 AB 55 B5 54 2A 55 25 55 52 A5 52 52 52 52 A5 AA BA 52 22 11 29 A9 A2 6A 95
DPCM : 12 11 91 52 95 56 B5 AA 54 49 49 55 55 95 AA 6A 55 F7 81 AE B5 5B 5B F5 0B 04 AA 5A B5 5B 77 B7
DPCM : AB AD 5A 55 D5 AA AD D5 AA 5A 2D AD AA AA AA AA 52 55 95 AA AA AA EE AA 52 55 55 55 ED 4E 49 89
DPCM : 14 49 A9 AA 6A B5 AA AA 54 A9 54 55 AA AA AA AA FB 80 A5 5B 5B AB 04 78 D4 A2 AA AD DD BA BB AD
DPCM : D5 AA 55 55 AD 6A D5 AA AA AA AA 52 A9 92 AA 92 52 29 55 51 49 AB 96 94 94 54 A9 94 48 A9 48 A1
DPCM : 48 AA B4 54 AB AA 54 A5 54 AA 54 55 55 55 AD 3F 28 AD AD AD DD FA 03 22 2A A5 D5 D6 ED EE D6 D6
DPCM : 6A 55 AD 6A D5 6A AD D6 AA AA 56 55 55 55 55 55 55 95 AA AA 6A 5B 55 55 B5 AA 55 75 8A 44 8A AA
DPCM : 54 55 D5 AA AA AB 52 A5 2A 55 2A 55 A5 52 55 AA 52 55 A9 AA AA 56 55 AD 6A D5 6A D5 56 AD 56 6B
DPCM : 55 AB 56 B5 AA AA AA AA AA AA 4A A5 AA 54 AA A4 4A A5 54 AA A4 4A AA 54 2A 55 52 A5 52 A5 52 A5
DPCM : 2A 55 2A 55 A5 2A 55 95 AA AA 52 55 55 D5 AA AA 6A 55 AD 56 6B B5 B6 B6 6A 6B 6B 6B 6B 6B 6B AB
DPCM : B6 55 5B B5 55 B5 5A 55 AB AA AA AA AA AA AA 2A 55 55 A5 AA 2A 55 55 55 AA AA AA 52 55 95 AA AA
DPCM : 52 55 A9 2A 55 A9 2A 95 AA 52 A9 4A 55 A9 AA 54 55 55 55 55 B5 AA 56 B5 5A 55 AB 55 AB 55 AB 55
DPCM : B5 5A 55 55 AD AA AA 52 55 55 AA 52 55 2A 55 2A 55 2A 95 52 A9 52 29 95 2A 95 2A 95 2A 95 2A 95
DPCM : 4A 55 A9 4A 95 AA 4A 55 55 A9 AA AA AA 55 55 B5 AA 55 5B B5 55 5B 5B AB B5 B5 AD AD DA DA 5A AD
DPCM : AD 5A AD 5A AD AA 55 AD AA AA 6A 95 AA AA AA AA 2A 55 55 95 AA AA 54 55 55 A9 AA 54 55 A9 4A 55
DPCM : A9 4A 55 AA 4A 55 AA 54 A5 AA 54 55 AA AA AA 54 D5 AA AA AA 55 AD AA 55 AD 5A AD AA D5 AA 56 D5
DPCM : AA AA 56 55 55 55 55 A9 AA 2A 55 A9 4A 95 AA 94 AA 4A A9 4A 95 4A 55 A9 54 AA 4A 55 AA 4A 55 AA
DPCM : AA 54 A5 AA AA AA AA D2 D2 AA AA AA 5A 55 D5 AA 55 AD 5A AD 56 AD 56 AD 56 AD 56 AD 6A 55 AD 6A
DPCM : 55 AB AA AA 56 55 55 55 55 55 55 55 55 55 AA AA AA AA AA 54 55 55 55 A5 AA AA AA 52 55 55 55 55
DPCM : 6A
DPCMDEF   2  1985 "kick.dmc"
DPCM : 00 00 00 00 80 AD FB FB FF 7F 00 00 00 FC FF FF FF FF FF FF FF FF FF FF FF 1F 00 00 1E 00 00 00
DPCM : E0 FF FF FF 11 00 00 00 00 40 55 55 55 55 55 55 55 F5 FF FF FF FF FF FF FF FF FF FF FF 7F 42 00
DPCM : 00 40 DD 2B 95 52 ED EE 6E 91 22 02 95 02 00 00 00 40 55 55 55 55 55 55 55 55 55 FF FF FF FF FF
DPCM : FF FF FF FF FF FF FF FF FF FF 07 00 00 00 04 44 00 52 AA 52 25 A5 AA 56 95 2A 55 D5 DD AA 12 11
DPCM : 02 55 55 55 55 55 55 55 55 EB FF FF FF FF FF FF FF FF FF FF FF FF FF FF FF FF FF 00 00 00 00 00
DPCM : 00 00 52 52 55 55 55 AD 2A 55 55 DD 6D 95 02 A8 AA AA AA AA AA AA FE FF DD 6D FF FF FF FF FF FF
DPCM : FF FF FF FF FF FF FF FF FF FF FF FF AF 00 00 00 00 44 00 00 08 A0 AA AA AA AA AA AA AA AA AA AA
DPCM : AA AA EE FD EE EE DD DF DF EF D6 2A 29 A9 52 55 B5 76 77 77 77 EB B6 76 EB FF FF FF FF FF FF FF
DPCM : FF 44 4A A4 88 88 48 A4 48 44 04 42 40 40 44 20 AA AA AA AA AA AA AA AA AA AA AA AA AA D6 EF EE
DPCM : EE D6 DD EF FD FD FF FE 7E F7 FF FF FF FF FF FF FF FF FF FF FF FF FF FF 44 44 44 84 44 44 44 84
DPCM : 40 44 20 22 42 44 A4 AA AA AA AA AA AA AA AA AA AA AA AA AA EE DD EF DD DD EF FD EF FF FE EF FE
DPCM : FF FF FF FF FF FF FF FF FF FF FF FF FF FF FF FF 44 08 84 80 88 08 44 20 04 04 04 42 AA AA AA AA
DPCM : AA AA AA AA AA AA AA AA AA AA AA AA EA EE EE DD DD 6F 77 F7 EE 7E F7 EE 77 77 F7 FF FF FF FF FF
DPCM : FF FF FF FF FF FF FF FF 44 0A 44 44 44 44 44 44 44 44 44 44 20 52 44 A4 AA AA AA AA AA AA AA AA
DPCM : AA AA AA AA AA D6 DD 77 F7 EE EE 77 77 B7 EE EE EE 77 77 F7 FE FF FF FF FF FF FF FF FF FF FF FF
DPCM : FF FF FF FF FF 7F 42 44 44 20 22 22 22 45 20 22 02 11 11 22 51 55 55 55 55 55 55 55 55 55 55 55
DPCM : 55 55 55 55 B7 EE 7E 77 77 77 5F 77 BB BB BB 7B 77 77 77 F7 FF FF FF FF FF FF FF FF FF FF FF FF
DPCM : FF FF FF 7F 45 10 11 11 11 22 22 91 22 22 22 22 10 11 11 51 55 55 55 55 55 55 55 55 55 55 55 55
DPCM : 55 55 55 55 5B 77 77 77 BF BB BB 5B B7 BB BB BB BB FB DD BA FF FF FF FF FF FF FF FF FF FF FF FF
DPCM : FF FF FF FF FF 13 29 22 10 11 11 11 89 14 11 11 11 11 11 11 11 A9 AA AA AA AA AA AA AA AA AA AA
DPCM : AA AA AA AA AA AA DA DD BA BB BB BB AF BB DB AD FB EE EE EE EE EE EE FF FF FF FF FF FF FF FF FF
DPCM : FF FF FF FF FF FF FF FF 9F 14 11 41 44 44 44 44 8A 44 8A 88 88 88 88 88 48 54 55 55 55 55 55 55
DPCM : 55 55 55 55 55 55 55 55 55 55 55 DD DD ED EE EE EE EE 6E DD 6E 77 77 77 77 77 EB EE FF FF FF FF
DPCM : FF FF FF FF FF FF FF FF FF FF FF FF FF FF 4A 44 44 24 22 22 22 52 24 52 44 44 24 22 22 22 12 A9
DPCM : AA AA AA AA AA AA AA AA AA AA AA AA AA AA AA AA AA 6A EB EE 76 77 77 77 B7 BB B5 BB 75 77 77 B7
DPCM : BB BB 75 FF FF FF FF FF FF FF FF FF FF FF FF FF FF FF FF FF FF FF 13 91 22 22 22 11 11 29 22 89
DPCM : 14 11 11 89 88 88 14 91 AA AA AA AA AA AA AA AA AA AA AA AA AA AA AA AA AA AA AA DB DD BA BB BB
DPCM : DD DD AD DB BA DD DD FA EE 6E DD DD EE FF FF FF FF FF FF FF FF FF FF FF FF FF FF FF FF FF FF FF
DPCM : 95 88 48 44 44 8A 88 44 A4 44 8A 44 44 A4 88 88 44 24 52 55 55 55 55 55 55 55 55 55 55 55 55 55
DPCM : 55 55 55 55 55 55 ED 6E DD DD EE EE 76 B7 6E B7 76 B7 EE 6E 77 B7 EE 6E F7 FF FF FF FF FF FF FF
DPCM : FF FF FF FF FF FF FF FF FF FF FF FF 7F 52 44 22 22 45 44 22 12 29 92 22 11 29 22 12 11 29 22 51
DPCM : 55 55 55 55 55 55 55 55 55 55 55 55 55 55 55 55 55 55 55 55 B7 BB 75 B7 BB 5B 77 BB DB DA AD DB
DPCM : DD AD BB DD DD BA DD FF FF FF FF FF FF FF FF FF FF FF FF FF FF FF FF FF FF FF FF 9F 14 89 14 11
DPCM : 89 48 11 89 44 4A 8A 48 44 8A 48 44 8A 48 A4 54 55 55 55 55 55 55 55 55 55 55 55 55 55 55 55 55
DPCM : 55 55 55 D5 D6 DD 6E DD ED 6E DD ED 76 6B EB 76 B7 EE 76 B7 EE 76 EB F6 FF FF FF FF FF FF FF FF
DPCM : FF FF FF FF FF FF FF FF FF FF FF FF 7F 45 22 52 24 22 45 24 22 91 92 22 29 22 11 29 22 91 22 12
DPCM : 29 55 55 55 55 55 55 55 55 55 55 55 55 55 55 55 55 55 55 55 55 55 75 BB 75 BB 5B B7 BB DD AD DD
DPCM : DA BA DD BA DD AD BB DD BA DD FA FF FF FF FF FF FF FF FF FF FF FF FF FF FF FF FF FF FF FF FF FF
DPCM : 9F 94 88 14 89 44 A4 48 44 4A A4 A4 48 A4 48 44 8A 44 0A 52 22 55 55 55 55 55 55 55 55 55 55 55
DPCM : 55 55 55 55 55 55 55 55 55 55 55 6D DD 6E 77 EB 76 EB 6E B7 6E 6B EB B6 EE 76 EB 76 B7 5B B7 5B
DPCM : FF FF FF FF FF FF FF FF FF FF FF FF FF FF FF FF FF FF FF FF FF FF 3F 29 91 22 91 22 12 29 12 29
DPCM : 92 92 22 89 14 91 48 91 48 91 48 91 AA AA AA AA AA AA AA AA AA AA AA AA AA AA AA AA AA AA AA AA
DPCM : AA AA AA DB BA DD BA DD BA DB AD DB 6E 6D ED D6 6E DD ED D6 ED D6 6D DD FE FF FF FF FF FF FF FF
DPCM : FF FF FF FF FF FF FF FF FF FF FF FF FF FF FF AF 48 8A 44 8A 44 22 45 22 45 52 52 22 45 52 24 22
DPCM : 45 22 29 12 29 A9 AA AA AA AA AA AA AA AA AA AA AA AA AA AA AA AA AA AA AA AA AA AA 5A 5B B7 75
DPCM : BB 75 BB 75 BB 75 5B 5B BB B5 DB AD DD BA DD BA DD DA AD FF FF FF FF FF FF FF FF FF FF FF FF FF
DPCM : FF FF FF FF FF FF FF FF FF FF 5F 49 91 14 89 14 89 14 89 A4 48 4A 4A A4 44 4A A4 48 A4 48 A4 44
DPCM : 52 54 55 55 55 55 55 55 55 55 55 55 55 55 55 55 55 55 55 55 55 55 55 55 55 D5 6D B7 76 EB 76 6B
DPCM : B7 6E B7 B6 6E 6B 6B B7 76 BB 75 BB B5 5B B7 75 FF FF FF FF FF FF FF FF FF FF FF FF FF FF FF FF
DPCM : FF FF FF FF FF FF FF FF BF 92 22 29 12 29 91 22 91 14 49 91 94 94 14 49 91 48 89 14 49 91 48 4A
DPCM : AA AA AA AA AA AA AA AA AA AA AA AA AA AA AA AA AA AA AA AA AA AA AA AA 6A 6D ED D6 6E DD D6 ED
DPCM : D6 6E DD D6 D6 D6 6E EB B6 6E B7 76 EB B6 6E 6B FF FF FF FF FF FF FF FF FF FF FF FF FF FF FF FF
DPCM : FF FF FF FF FF FF FF FF FF 7F 25 52 22 25 12 29 91 12 29 92 92 92 92 22 29 92 22 91 14 49 91 14
DPCM : 49 49 55 55 55 55 55 55 55 55 55 55 55 55 55 55 55 55 55 55 55 55 55 55 55 55 55 AD DD DA AD DD
DPCM : DA AD DD BA 6D DD D6 D6 D6 D6 6D DD D6 ED D6 6E ED D6 76 FF FF FF FF FF FF FF FF FF FF FF FF FF
DPCM : FF FF FF FF FF FF FF FF FF FF FF FF FF 57 52 22 25 45 22 25 52 22 25 52 52 52 92 12 29 29 92 22
DPCM : 91 12 29 29 92 12 55 55 55 55 55 55 55 55 55 55 55 55 55 55 55 55 55 55 55 55 55 55 55 55 55 55
DPCM : B5 B5 F5 DA BA AD DB BA AD DB DA AD AD AD AD AD D7 6E ED D6 D6 6D DD D6 6E FD FF FF FF FF FF FF
DPCM : FF FF FF FF FF FF FF FF FF FF FF FF FF FF FF FF FF FF FF FF AF 44 4A 8A 24 45 52 24 45 52 22 25
DPCM : 25 25 25 25 52 22 29 91 12 29 29 92 92 A2 AA AA AA AA AA AA AA AA AA AA AA AA AA AA AA AA AA AA
DPCM : AA AA AA AA AA AA AA AA AA B5 5B 5B BB B5 DB DA AD DD DA DA AD AD DA BA AD AD DB 7A 6D DD D6 6D
DPCM : FF FF FF FF FF FF FF FF FF FF FF FF FF FF FF FF FF FF FF FF FF FF FF FF FF FF FF FF FF FF FF FF
DPCM : FF
DPCMDEF   3  1009 "snare2.dmc"
DPCM : CD 32 CB 0C CF F0 C3 32 3C CF FF FF CF 6F 00 00 00 00 00 00 E0 E7 FF FF FF FF 79 CC 33 00 00 00
DPCM : 00 00 C0 A8 8F CF FF FF E7 FF E7 F7 FF 67 FC 87 01 00 00 00 00 00 00 0C EA 38 FA FF FF FF FF FF
DPCM : FF FF FF 9F FF 87 01 00 00 00 00 00 00 40 1D C7 F9 CF FF FF FF FF FF FF F3 3C CF C0 0C 0C 03 00
DPCM : 00 00 18 00 82 01 A6 E7 61 9E FF FF FF EF 3F FC FF F0 3C F4 3C 0D C3 33 C0 00 00 00 06 18 66 00
DPCM : E0 E1 61 9E 67 9E F9 FF FF FF FF BC FC CF F3 CC CE CC F0 00 00 00 00 00 60 80 61 86 61 98 9F 7F
DPCM : F8 FF FF F3 FF 3C CF CF F3 D1 0C 63 C0 00 30 80 81 01 E0 59 18 86 E1 87 FD 65 FE 3F F6 FC CC FF
DPCM : FC 2C F3 30 30 3C 0C C7 C0 30 06 98 81 41 9C E5 85 69 60 FE D9 79 9E FF 4C FF 33 CF 33 F3 F3 CD
DPCM : CC 30 0F 83 00 19 46 80 61 60 90 81 99 E1 E1 9E F9 C1 FD EF 3C F7 EC CF 3C 4F CF C3 0C C3 00 9C
DPCM : 61 18 39 06 18 9E 80 79 68 1E 66 E6 E7 FC 3C 3C 3F 0F F3 0F FC 3C 0F 4C 3B 08 03 86 79 E0 79 78
DPCM : 9A 99 81 67 1E 06 7E A6 37 CF F3 2C CC B3 0C 3F 71 DC 30 3C 07 87 99 81 61 E0 87 81 87 99 1E E6
DPCM : 87 61 9E 3C 33 CF CF CF E3 3C 0C CF 33 71 0E 30 9C 61 6E 66 18 86 99 83 87 E1 99 E7 99 99 CE CC
DPCM : F3 0F 3C F8 CC 0C 2F 0C C3 CF F1 61 18 86 19 1E 83 87 87 99 67 9C E7 83 39 E2 F3 F2 F0 37 C0 F3
DPCM : F0 4C 0F B3 C3 30 27 98 87 13 86 67 8A 79 1A 9E E7 80 79 CC F3 F0 0C CF C3 F4 30 BC 33 3C 0F 33
DPCM : CD E1 61 1E 78 9E 01 A6 79 66 06 0E 96 87 C9 3F FC FC C0 37 F0 0C CF C3 C3 30 CB 4C A6 E1 79 9C
DPCM : 19 86 E1 1F E6 19 F8 79 18 0E EF C0 B3 EC F0 3C 30 CF CC 30 CF D0 3C E4 99 E1 E1 19 98 79 8E 07
DPCM : 86 8B 9F E7 31 CC E3 3C 30 F3 3C 34 3C CC DE E0 71 61 66 19 76 E0 79 86 39 07 1F 84 9F 87 99 C3
DPCM : B3 30 4F BC 0C F3 C3 C3 3C 73 3C 1C 1C 8E 87 97 67 60 7E 18 66 60 7E 78 26 9E 0D F3 F4 C3 F0 E0
DPCM : F2 B0 3C 4F F0 1C CC 4C 66 78 06 7B 86 99 1E 9E 83 79 F8 78 18 C3 FC 0C CF 33 33 33 34 0F 0F AF
DPCM : 0C 4F 9F 99 61 1E 86 19 98 E6 61 67 9E 81 D7 61 CB F0 F1 B0 34 F3 CC 30 0F BC 2C F3 1C 9C 19 AE
DPCM : 99 79 60 E4 E1 61 3C 9A 9F 87 D9 C0 33 70 1F C7 B1 34 3E 2C CB 3C CE 0C 9D C5 E1 E1 E1 F9 60 1C
DPCM : 66 99 45 E7 99 59 0C D3 F3 4C C3 B1 CC 73 C6 D0 D3 CC C1 1C 8E 8B 8B 87 87 E1 E1 E1 61 CF E0 B9
DPCM : 29 33 B3 32 F3 30 0F CF C8 F0 93 34 CC 53 66 CE E1 79 86 E0 1D 9C 1E 83 79 78 8E E7 90 F3 C0 3D
DPCM : EC B0 72 CA EC 3C B0 1C E3 79 80 C7 1D E1 79 F0 66 C1 E5 78 D8 19 53 23 0F 0F 3F CC D2 0C 1F 1B
DPCM : F9 0C 3C CE 03 E7 19 8E 07 1E 47 87 E3 79 98 99 39 3C 3C 3C 3D A3 1E CC B2 8E 8C C3 3C 4B 73 9C
DPCM : 99 66 AA 61 5E 58 87 63 6E A4 13 B7 31 2E C3 2B AB 0C CF C3 CC 0E 3C CB C3 8D 19 36 E3 F0 91 27
DPCM : C6 CD 81 2F 78 99 99 C3 C3 DC F0 9C CC 0E BC 43 D3 3C 32 AD 62 93 99 C7 E5 60 73 B8 78 64 9E E2
DPCM : B8 71 70 1B B3 CC CC 3C 83 D3 4C EC 33 C9 49 1B 87 1D E6 94 8E 87 E9 A1 1E 1E 9A 33 F8 D8 34 DC
DPCM : 0C CF 23 BC 1C 8D 8F 32 73 CC 1C E3 78 98 1D 87 0D 1F 4E 9A D9 18 7E E8 8C 0D CF C6 32 0D F3 B8
DPCM : 32 CC A7 CC CC 38 9E D4 89 27 66 87 79 78 B8 0C 9E E3 D8 34 B3 F0 32 8D 0F AB 34 2E 2B 27 CD C9
DPCM : 38 6D 6C C6 E2 31 53 93 E3 2C 63 39 CE B1 34 47 D9 CC E1 C9 32 AE D1 46 CD AA 2C CB 19 9D 1A CE
DPCM : B1 B8 B8 B8 D8 E2 68 8D CB 32 B5 2C 33 2B D5 AC CC AC CC CA AA AC 89 CB CC 2C B6 8C E3 38 66 56
DPCM : CD 98 55 55 55 55 55 55 55 55 55 55 55 55 55 55 55

# Instruments
INST2A03   0    11  -1  -1  -1  -1 "DPCM"
KEYDPCM   0   3   2     0  15   0     0  -1
KEYDPCM   0   4   0     2  15   0     0  -1
KEYDPCM   0   4   3     3  15   0     0  -1
KEYDPCM   0   4   4     1  15   0     0  -1
INST2A03   1     0  -1  -1  -1   0 "SHORT SQUARE50"
INST2A03   2     3  -1  -1  -1   1 "SLOW SQUARE"
INST2A03   3     4  -1   2  -1  -1 "NOISE1"
INST2A03   4     5  -1  -1  -1  -1 "NOISE2"
INST2A03   5     6  -1  -1  -1   3 "New instrument"
INST2A03   6     7   4  -1  -1  -1 "NOISE3"
INST2A03   7     1   0  -1  -1  -1 "TRIANGLE"
INST2A03   8    13  -1  -1  -1   8 "detune"
INST2A03   9     9  -1   4  -1  -1 "hihat close"
INST2A03  10    10  -1   5  -1  -1 "hihat open"
INST2A03  11    14  -1  -1  -1   9 "detune"
INST2A03  12    15  -1  -1  -1  10 "New instrument"

# Tracks

TRACK  48   6 150 "pentup house"
COLUMNS : 1 1 1 1 1

ORDER 00 : 00 00 00 00 00
ORDER 01 : 01 01 01 00 00
ORDER 02 : 00 00 00 00 00
ORDER 03 : 02 02 02 00 00
ORDER 04 : 03 03 03 00 00
ORDER 05 : 04 04 04 00 00
ORDER 06 : 00 00 00 00 00
ORDER 07 : 01 01 01 00 00

PATTERN 00
ROW 00 : D-4 01 . ... : ... .. . ... : A-3 07 . ... : ... .. . ... : ... .. . ...
ROW 01 : ... .. . ... : ... .. . ... : ... .. . ... : ... .. . ... : ... .. . ...
ROW 02 : B-3 01 . ... : G-3 01 . ... : E-3 07 . ... : ... .. . ... : ... .. . ...
ROW 03 : --- .. . ... : --- .. . ... : --- .. . ... : ... .. . ... : ... .. . ...
ROW 04 : ... .. . ... : ... .. . ... : ... .. . ... : ... .. . ... : ... .. . ...
ROW 05 : D-4 01 . ... : --- .. . ... : A-3 07 . ... : ... .. . ... : ... .. . ...
ROW 06 : A#3 01 . ... : F#3 01 . ... : D-3 07 . ... : ... .. . ... : ... .. . ...
ROW 07 : ... .. . ... : ... .. . ... : ... .. . ... : ... .. . ... : ... .. . ...
ROW 08 : ... .. . ... : ... .. . ... : ... .. . ... : ... .. . ... : ... .. . ...
ROW 09 : D-4 01 . ... : --- .. . ... : A-3 07 . ... : ... .. . ... : ... .. . ...
ROW 0A : ... .. . ... : ... .. . ... : ... .. . ... : ... .. . ... : ... .. . ...
ROW 0B : B-3 01 . ... : G-3 01 . ... : E-3 07 . ... : ... .. . ... : ... .. . ...
ROW 0C : --- .. . ... : --- .. . ... : --- .. . ... : ... .. . ... : ... .. . ...
ROW 0D : ... .. . ... : ... .. . ... : ... .. . ... : ... .. . ... : ... .. . ...
ROW 0E : D-4 01 . ... : --- .. . ... : A-3 07 . ... : ... .. . ... : ... .. . ...
ROW 0F : A#3 01 . ... : F#3 01 . ... : D-3 07 . ... : ... .. . ... : ... .. . ...
ROW 10 : ... .. . ... : ... .. . ... : ... .. . ... : ... .. . ... : ... .. . ...
ROW 11 : ... .. . ... : ... .. . ... : ... .. . ... : ... .. . ... : ... .. . ...
ROW 12 : D-4 01 . ... : --- .. . ... : A-3 07 . ... : ... .. . ... : ... .. . ...
ROW 13 : ... .. . ... : ... .. . ... : ... .. . ... : ... .. . ... : ... .. . ...
ROW 14 : B-3 01 . ... : G-3 01 . ... : E-3 07 . ... : ... .. . ... : ... .. . ...
ROW 15 : --- .. . ... : --- .. . ... : --- .. . ... : ... .. . ... : ... .. . ...
ROW 16 : ... .. . ... : ... .. . ... : ... .. . ... : ... .. . ... : ... .. . ...
ROW 17 : D-4 01 . D00 : --- 01 . ... : A-3 07 . ... : ... .. . ... : ... .. . ...
ROW 18 : A-3 01 . ... : E-3 01 . ... : G-2 07 . ... : ... .. . ... : ... .. . ...
ROW 19 : ... .. . ... : ... .. . ... : ... .. . ... : ... .. . ... : ... .. . ...
ROW 1A : ... .. . ... : ... .. . ... : ... .. . ... : ... .. . ... : ... .. . ...
ROW 1B : ... .. . ... : ... .. . ... : ... .. . ... : ... .. . ... : ... .. . ...
ROW 1C : ... .. . ... : ... .. . ... : ... .. . ... : ... .. . ... : ... .. . ...
ROW 1D : --- .. . ... : --- .. . ... : --- .. . ... : ... .. . ... : ... .. . ...
ROW 1E : A-3 01 . ... : E-3 01 . ... : G-2 07 . ... : ... .. . ... : ... .. . ...
ROW 1F : A#3 01 . ... : F-3 01 . ... : G#2 07 . ... : ... .. . ... : ... .. . ...
ROW 20 : ... .. . ... : ... .. . ... : ... .. . ... : ... .. . ... : ... .. . ...
ROW 21 : ... .. . ... : ... .. . ... : ... .. . ... : ... .. . ... : ... .. . ...
ROW 22 : ... .. . ... : ... .. . ... : ... .. . ... : ... .. . ... : ... .. . ...
ROW 23 : A-3 01 . D00 : E-3 01 . ... : G-2 07 . ... : ... .. . ... : ... .. . ...
ROW 24 : ... .. . ... : ... .. . ... : ... .. . ... : ... .. . ... : ... .. . ...
ROW 25 : ... .. . ... : ... .. . ... : ... .. . ... : ... .. . ... : ... .. . ...
ROW 26 : ... .. . ... : ... .. . ... : ... .. . ... : ... .. . ... : ... .. . ...
ROW 27 : ... .. . ... : ... .. . ... : ... .. . ... : ... .. . ... : ... .. . ...
ROW 28 : ... .. . ... : ... .. . ... : ... .. . ... : ... .. . ... : ... .. . ...
ROW 29 : ... .. . ... : ... .. . ... : ... .. . ... : ... .. . ... : ... .. . ...
ROW 2A : ... .. . ... : ... .. . ... : ... .. . ... : ... .. . ... : ... .. . ...
ROW 2B : ... .. . ... : ... .. . ... : ... .. . ... : ... .. . ... : ... .. . ...
ROW 2C : ... .. . ... : ... .. . ... : ... .. . ... : ... .. . ... : ... .. . ...
ROW 2D : ... .. . ... : ... .. . ... : ... .. . ... : ... .. . ... : ... .. . ...
ROW 2E : ... .. . ... : ... .. . ... : ... .. . ... : ... .. . ... : ... .. . ...
ROW 2F : ... .. . ... : ... .. . ... : ... .. . ... : ... .. . ... : ... .. . ...

PATTERN 01
ROW 00 : A-3 01 . ... : E-3 01 . ... : G-2 07 . ... : ... .. . ... : ... .. . ...
ROW 01 : ... .. . ... : ... .. . ... : ... .. . ... : ... .. . ... : ... .. . ...
ROW 02 : ... .. . ... : ... .. . ... : ... .. . ... : ... .. . ... : ... .. . ...
ROW 03 : ... .. . ... : ... .. . ... : ... .. . ... : ... .. . ... : ... .. . ...
ROW 04 : ... .. . ... : ... .. . ... : ... .. . ... : ... .. . ... : ... .. . ...
ROW 05 : --- .. . ... : --- .. . ... : --- .. . ... : ... .. . ... : ... .. . ...
ROW 06 : A-3 01 . ... : E-3 01 . ... : G-2 07 . ... : ... .. . ... : ... .. . ...
ROW 07 : A#3 01 . ... : F-3 01 . ... : G#2 07 . ... : ... .. . ... : ... .. . ...
ROW 08 : ... .. . ... : ... .. . ... : ... .. . ... : ... .. . ... : ... .. . ...
ROW 09 : ... .. . ... : ... .. . ... : ... .. . ... : ... .. . ... : ... .. . ...
ROW 0A : ... .. . ... : ... .. . ... : ... .. . ... : ... .. . ... : ... .. . ...
ROW 0B : A-3 01 . ... : E-3 01 . ... : G-2 07 . ... : ... .. . ... : ... .. . ...
ROW 0C : --- 01 . ... : --- .. . ... : --- .. . ... : ... .. . ... : ... .. . ...
ROW 0D : ... .. . ... : ... .. . ... : ... .. . ... : ... .. . ... : ... .. . ...
ROW 0E : D-3 01 . ... : ... .. . ... : ... .. . ... : ... .. . ... : ... .. . ...
ROW 0F : E-3 01 . ... : ... .. . ... : ... .. . ... : ... .. . ... : ... .. . ...
ROW 10 : ... .. . ... : ... .. . ... : ... .. . ... : ... .. . ... : ... .. . ...
ROW 11 : F#3 01 . ... : ... .. . ... : ... .. . ... : ... .. . ... : ... .. . ...
ROW 12 : G-3 01 . ... : ... .. . ... : ... .. . ... : ... .. . ... : ... .. . ...
ROW 13 : ... .. . ... : ... .. . ... : ... .. . ... : ... .. . ... : ... .. . ...
ROW 14 : A-3 01 . ... : ... .. . ... : ... .. . ... : ... .. . ... : ... .. . ...
ROW 15 : B-3 01 . ... : ... .. . ... : ... .. . ... : ... .. . ... : ... .. . ...
ROW 16 : ... .. . ... : ... .. . ... : ... .. . ... : ... .. . ... : ... .. . ...
ROW 17 : C-4 01 . D00 : ... .. . ... : ... .. . ... : ... .. . ... : ... .. . ...
ROW 18 : ... .. . ... : ... .. . ... : ... .. . ... : ... .. . ... : ... .. . ...
ROW 19 : ... .. . ... : ... .. . ... : ... .. . ... : ... .. . ... : ... .. . ...
ROW 1A : ... .. . ... : ... .. . ... : ... .. . ... : ... .. . ... : ... .. . ...
ROW 1B : ... .. . ... : ... .. . ... : ... .. . ... : ... .. . ... : ... .. . ...
ROW 1C : ... .. . ... : ... .. . ... : ... .. . ... : ... .. . ... : ... .. . ...
ROW 1D : ... .. . ... : ... .. . ... : ... .. . ... : ... .. . ... : ... .. . ...
ROW 1E : ... .. . ... : ... .. . ... : ... .. . ... : ... .. . ... : ... .. . ...
ROW 1F : ... .. . ... : ... .. . ... : ... .. . ... : ... .. . ... : ... .. . ...
ROW 20 : ... .. . ... : ... .. . ... : ... .. . ... : ... .. . ... : ... .. . ...
ROW 21 : ... .. . ... : ... .. . ... : ... .. . ... : ... .. . ... : ... .. . ...
ROW 22 : ... .. . ... : ... .. . ... : ... .. . ... : ... .. . ... : ... .. . ...
ROW 23 : ... .. . ... : ... .. . ... : ... .. . ... : ... .. . ... : ... .. . ...
ROW 24 : ... .. . ... : ... .. . ... : ... .. . ... : ... .. . ... : ... .. . ...
ROW 25 : ... .. . ... : ... .. . ... : ... .. . ... : ... .. . ... : ... .. . ...
ROW 26 : ... .. . ... : ... .. . ... : ... .. . ... : ... .. . ... : ... .. . ...
ROW 27 : ... .. . ... : ... .. . ... : ... .. . ... : ... .. . ... : ... .. . ...
ROW 28 : ... .. . ... : ... .. . ... : ... .. . ... : ... .. . ... : ... .. . ...
ROW 29 : ... .. . ... : ... .. . ... : ... .. . ... : ... .. . ... : ... .. . ...
ROW 2A : ... .. . ... : ... .. . ... : ... .. . ... : ... .. . ... : ... .. . ...
ROW 2B : ... .. . ... : ... .. . ... : ... .. . ... : ... .. . ... : ... .. . ...
ROW 2C : ... .. . ... : ... .. . ... : ... .. . ... : ... .. . ... : ... .. . ...
ROW 2D : ... .. . ... : ... .. . ... : ... .. . ... : ... .. . ... : ... .. . ...
ROW 2E : ... .. . ... : ... .. . ... : ... .. . ... : ... .. . ... : ... .. . ...
ROW 2F : ... .. . ... : ... .. . ... : ... .. . ... : ... .. . ... : ... .. . ...

PATTERN 02
ROW 00 : A-3 01 . ... : E-3 01 . ... : G-2 07 . ... : ... .. . ... : ... .. . ...
ROW 01 : ... .. . ... : ... .. . ... : ... .. . ... : ... .. . ... : ... .. . ...
ROW 02 : ... .. . ... : ... .. . ... : ... .. . ... : ... .. . ... : ... .. . ...
ROW 03 : ... .. . ... : ... .. . ... : ... .. . ... : ... .. . ... : ... .. . ...
ROW 04 : ... .. . ... : ... .. . ... : ... .. . ... : ... .. . ... : ... .. . ...
ROW 05 : --- .. . ... : --- .. . ... : --- .. . ... : ... .. . ... : ... .. . ...
ROW 06 : ... .. . ... : ... .. . ... : ... .. . ... : ... .. . ... : ... .. . ...
ROW 07 : ... .. . ... : ... .. . ... : ... .. . ... : ... .. . ... : ... .. . ...
ROW 08 : ... .. . ... : ... .. . ... : ... .. . ... : ... .. . ... : ... .. . ...
ROW 09 : ... .. . ... : ... .. . ... : ... .. . ... : ... .. . ... : ... .. . ...
ROW 0A : ... .. . ... : ... .. . ... : ... .. . ... : ... .. . ... : ... .. . ...
ROW 0B : ... .. . ... : ... .. . ... : ... .. . ... : ... .. . ... : ... .. . ...
ROW 0C : ... .. . ... : ... .. . ... : ... .. . ... : ... .. . ... : ... .. . ...
ROW 0D : ... .. . ... : ... .. . ... : ... .. . ... : ... .. . ... : ... .. . ...
ROW 0E : D-3 01 . ... : ... .. . ... : ... .. . ... : ... .. . ... : ... .. . ...
ROW 0F : A-3 01 . ... : ... .. . ... : ... .. . ... : ... .. . ... : ... .. . ...
ROW 10 : ... .. . ... : ... .. . ... : ... .. . ... : ... .. . ... : ... .. . ...
ROW 11 : F#3 01 . ... : ... .. . ... : ... .. . ... : ... .. . ... : ... .. . ...
ROW 12 : G-3 01 . ... : ... .. . ... : ... .. . ... : ... .. . ... : ... .. . ...
ROW 13 : ... .. . ... : ... .. . ... : ... .. . ... : ... .. . ... : ... .. . ...
ROW 14 : A-3 01 . ... : ... .. . ... : ... .. . ... : ... .. . ... : ... .. . ...
ROW 15 : B-3 01 . ... : ... .. . ... : ... .. . ... : ... .. . ... : ... .. . ...
ROW 16 : ... .. . ... : ... .. . ... : ... .. . ... : ... .. . ... : ... .. . ...
ROW 17 : D-4 01 . D00 : ... .. . ... : ... .. . ... : ... .. . ... : ... .. . ...
ROW 18 : ... .. . ... : ... .. . ... : ... .. . ... : ... .. . ... : ... .. . ...
ROW 19 : ... .. . ... : ... .. . ... : ... .. . ... : ... .. . ... : ... .. . ...
ROW 1A : ... .. . ... : ... .. . ... : ... .. . ... : ... .. . ... : ... .. . ...
ROW 1B : ... .. . ... : ... .. . ... : ... .. . ... : ... .. . ... : ... .. . ...
ROW 1C : ... .. . ... : ... .. . ... : ... .. . ... : ... .. . ... : ... .. . ...
ROW 1D : ... .. . ... : ... .. . ... : ... .. . ... : ... .. . ... : ... .. . ...
ROW 1E : ... .. . ... : ... .. . ... : ... .. . ... : ... .. . ... : ... .. . ...
ROW 1F : ... .. . ... : ... .. . ... : ... .. . ... : ... .. . ... : ... .. . ...
ROW 20 : ... .. . ... : ... .. . ... : ... .. . ... : ... .. . ... : ... .. . ...
ROW 21 : ... .. . ... : ... .. . ... : ... .. . ... : ... .. . ... : ... .. . ...
ROW 22 : ... .. . ... : ... .. . ... : ... .. . ... : ... .. . ... : ... .. . ...
ROW 23 : ... .. . ... : ... .. . ... : ... .. . ... : ... .. . ... : ... .. . ...
ROW 24 : ... .. . ... : ... .. . ... : ... .. . ... : ... .. . ... : ... .. . ...
ROW 25 : ... .. . ... : ... .. . ... : ... .. . ... : ... .. . ... : ... .. . ...
ROW 26 : ... .. . ... : ... .. . ... : ... .. . ... : ... .. . ... : ... .. . ...
ROW 27 : ... .. . ... : ... .. . ... : ... .. . ... : ... .. . ... : ... .. . ...
ROW 28 : ... .. . ... : ... .. . ... : ... .. . ... : ... .. . ... : ... .. . ...
ROW 29 : ... .. . ... : ... .. . ... : ... .. . ... : ... .. . ... : ... .. . ...
ROW 2A : ... .. . ... : ... .. . ... : ... .. . ... : ... .. . ... : ... .. . ...
ROW 2B : ... .. . ... : ... .. . ... : ... .. . ... : ... .. . ... : ... .. . ...
ROW 2C : ... .. . ... : ... .. . ... : ... .. . ... : ... .. . ... : ... .. . ...
ROW 2D : ... .. . ... : ... .. . ... : ... .. . ... : ... .. . ... : ... .. . ...
ROW 2E : ... .. . ... : ... .. . ... : ... .. . ... : ... .. . ... : ... .. . ...
ROW 2F : ... .. . ... : ... .. . ... : ... .. . ... : ... .. . ... : ... .. . ...

PATTERN 03
ROW 00 : G-4 01 . ... : ... .. . ... : D-4 07 . ... : ... .. . ... : ... .. . ...
ROW 01 : ... .. . ... : ... .. . ... : ... .. . ... : ... .. . ... : ... .. . ...
ROW 02 : E-4 01 . ... : C-4 01 . ... : A-3 07 . ... : ... .. . ... : ... .. . ...
ROW 03 : --- .. . ... : --- .. . ... : --- .. . ... : ... .. . ... : ... .. . ...
ROW 04 : ... .. . ... : ... .. . ... : ... .. . ... : ... .. . ... : ... .. . ...
ROW 05 : G-4 01 . ... : --- .. . ... : D-4 07 . ... : ... .. . ... : ... .. . ...
ROW 06 : D#4 01 . ... : B-3 01 . ... : G-3 07 . ... : ... .. . ... : ... .. . ...
ROW 07 : ... .. . ... : ... .. . ... : ... .. . ... : ... .. . ... : ... .. . ...
ROW 08 : ... .. . ... : ... .. . ... : ... .. . ... : ... .. . ... : ... .. . ...
ROW 09 : G-4 01 . ... : --- .. . ... : D-4 07 . ... : ... .. . ... : ... .. . ...
ROW 0A : ... .. . ... : ... .. . ... : ... .. . ... : ... .. . ... : ... .. . ...
ROW 0B : E-4 01 . ... : C-4 01 . ... : A-3 07 . ... : ... .. . ... : ... .. . ...
ROW 0C : --- .. . ... : --- .. . ... : --- .. . ... : ... .. . ... : ... .. . ...
ROW 0D : ... .. . ... : ... .. . ... : ... .. . ... : ... .. . ... : ... .. . ...
ROW 0E : G-4 01 . ... : --- .. . ... : D-4 07 . ... : ... .. . ... : ... .. . ...
ROW 0F : D#4 01 . ... : B-3 01 . ... : G-3 07 . ... : ... .. . ... : ... .. . ...
ROW 10 : ... .. . ... : ... .. . ... : ... .. . ... : ... .. . ... : ... .. . ...
ROW 11 : ... .. . ... : ... .. . ... : ... .. . ... : ... .. . ... : ... .. . ...
ROW 12 : G-4 01 . ... : --- .. . ... : D-4 07 . ... : ... .. . ... : ... .. . ...
ROW 13 : ... .. . ... : ... .. . ... : ... .. . ... : ... .. . ... : ... .. . ...
ROW 14 : E-4 01 . ... : C-4 01 . ... : A-3 07 . ... : ... .. . ... : ... .. . ...
ROW 15 : --- .. . ... : --- .. . ... : --- .. . ... : ... .. . ... : ... .. . ...
ROW 16 : ... .. . ... : ... .. . ... : ... .. . ... : ... .. . ... : ... .. . ...
ROW 17 : G-4 01 . D00 : --- 01 . ... : D-4 07 . ... : ... .. . ... : ... .. . ...
ROW 18 : ... .. . ... : ... .. . ... : ... .. . ... : ... .. . ... : ... .. . ...
ROW 19 : ... .. . ... : ... .. . ... : ... .. . ... : ... .. . ... : ... .. . ...
ROW 1A : ... .. . ... : ... .. . ... : ... .. . ... : ... .. . ... : ... .. . ...
ROW 1B : ... .. . ... : ... .. . ... : ... .. . ... : ... .. . ... : ... .. . ...
ROW 1C : ... .. . ... : ... .. . ... : ... .. . ... : ... .. . ... : ... .. . ...
ROW 1D : ... .. . ... : ... .. . ... : ... .. . ... : ... .. . ... : ... .. . ...
ROW 1E : ... .. . ... : ... .. . ... : ... .. . ... : ... .. . ... : ... .. . ...
ROW 1F : ... .. . ... : ... .. . ... : ... .. . ... : ... .. . ... : ... .. . ...
ROW 20 : ... .. . ... : ... .. . ... : ... .. . ... : ... .. . ... : ... .. . ...
ROW 21 : ... .. . ... : ... .. . ... : ... .. . ... : ... .. . ... : ... .. . ...
ROW 22 : ... .. . ... : ... .. . ... : ... .. . ... : ... .. . ... : ... .. . ...
ROW 23 : ... .. . ... : ... .. . ... : ... .. . ... : ... .. . ... : ... .. . ...
ROW 24 : ... .. . ... : ... .. . ... : ... .. . ... : ... .. . ... : ... .. . ...
ROW 25 : ... .. . ... : ... .. . ... : ... .. . ... : ... .. . ... : ... .. . ...
ROW 26 : ... .. . ... : ... .. . ... : ... .. . ... : ... .. . ... : ... .. . ...
ROW 27 : ... .. . ... : ... .. . ... : ... .. . ... : ... .. . ... : ... .. . ...
ROW 28 : ... .. . ... : ... .. . ... : ... .. . ... : ... .. . ... : ... .. . ...
ROW 29 : ... .. . ... : ... .. . ... : ... .. . ... : ... .. . ... : ... .. . ...
ROW 2A : ... .. . ... : ... .. . ... : ... .. . ... : ... .. . ... : ... .. . ...
ROW 2B : ... .. . ... : ... .. . ... : ... .. . ... : ... .. . ... : ... .. . ...
ROW 2C : ... .. . ... : ... .. . ... : ... .. . ... : ... .. . ... : ... .. . ...
ROW 2D : ... .. . ... : ... .. . ... : ... .. . ... : ... .. . ... : ... .. . ...
ROW 2E : ... .. . ... : ... .. . ... : ... .. . ... : ... .. . ... : ... .. . ...
ROW 2F : ... .. . ... : ... .. . ... : ... .. . ... : ... .. . ... : ... .. . ...

PATTERN 04
ROW 00 : D-4 01 . ... : A-3 01 . ... : C-3 07 . ... : ... .. . ... : ... .. . ...
ROW 01 : ... .. . ... : ... .. . ... : ... .. . ... : ... .. . ... : ... .. . ...
ROW 02 : ... .. . ... : ... .. . ... : ... .. . ... : ... .. . ... : ... .. . ...
ROW 03 : ... .. . ... : ... .. . ... : ... .. . ... : ... .. . ... : ... .. . ...
ROW 04 : ... .. . ... : ... .. . ... : ... .. . ... : ... .. . ... : ... .. . ...
ROW 05 : --- .. . ... : --- .. . ... : --- .. . ... : ... .. . ... : ... .. . ...
ROW 06 : ... .. . ... : ... .. . ... : ... .. . ... : ... .. . ... : ... .. . ...
ROW 07 : ... .. . ... : ... .. . ... : ... .. . ... : ... .. . ... : ... .. . ...
ROW 08 : ... .. . ... : ... .. . ... : ... .. . ... : ... .. . ... : ... .. . ...
ROW 09 : ... .. . ... : ... .. . ... : ... .. . ... : ... .. . ... : ... .. . ...
ROW 0A : ... .. . ... : ... .. . ... : ... .. . ... : ... .. . ... : ... .. . ...
ROW 0B : ... .. . ... : ... .. . ... : ... .. . ... : ... .. . ... : ... .. . ...
ROW 0C : F-4 01 . ... : ... .. . ... : C-4 07 . ... : ... .. . ... : ... .. . ...
ROW 0D : ... .. . ... : ... .. . ... : ... .. . ... : ... .. . ... : ... .. . ...
ROW 0E : D-4 01 . ... : A#3 01 . ... : G-3 07 . ... : ... .. . ... : ... .. . ...
ROW 0F : --- .. . ... : --- .. . ... : --- .. . ... : ... .. . ... : ... .. . ...
ROW 10 : ... .. . ... : ... .. . ... : ... .. . ... : ... .. . ... : ... .. . ...
ROW 11 : F-4 01 . ... : --- .. . ... : C-4 07 . ... : ... .. . ... : ... .. . ...
ROW 12 : C#4 01 . ... : A-3 01 . ... : F-3 07 . ... : ... .. . ... : ... .. . ...
ROW 13 : ... .. . ... : ... .. . ... : ... .. . ... : ... .. . ... : ... .. . ...
ROW 14 : ... .. . ... : ... .. . ... : ... .. . ... : ... .. . ... : ... .. . ...
ROW 15 : ... .. . ... : ... .. . ... : ... .. . ... : ... .. . ... : ... .. . ...
ROW 16 : ... .. . ... : ... .. . ... : ... .. . ... : ... .. . ... : ... .. . ...
ROW 17 : --- .. . D00 : --- .. . ... : --- .. . ... : ... .. . ... : ... .. . ...
ROW 18 : ... .. . ... : ... .. . ... : ... .. . ... : ... .. . ... : ... .. . ...
ROW 19 : ... .. . ... : ... .. . ... : ... .. . ... : ... .. . ... : ... .. . ...
ROW 1A : ... .. . ... : ... .. . ... : ... .. . ... : ... .. . ... : ... .. . ...
ROW 1B : ... .. . ... : ... .. . ... : ... .. . ... : ... .. . ... : ... .. . ...
ROW 1C : ... .. . ... : ... .. . ... : ... .. . ... : ... .. . ... : ... .. . ...
ROW 1D : ... .. . ... : ... .. . ... : ... .. . ... : ... .. . ... : ... .. . ...
ROW 1E : ... .. . ... : ... .. . ... : ... .. . ... : ... .. . ... : ... .. . ...
ROW 1F : ... .. . ... : ... .. . ... : ... .. . ... : ... .. . ... : ... .. . ...
ROW 20 : ... .. . ... : ... .. . ... : ... .. . ... : ... .. . ... : ... .. . ...
ROW 21 : ... .. . ... : ... .. . ... : ... .. . ... : ... .. . ... : ... .. . ...
ROW 22 : ... .. . ... : ... .. . ... : ... .. . ... : ... .. . ... : ... .. . ...
ROW 23 : ... .. . ... : ... .. . ... : ... .. . ... : ... .. . ... : ... .. . ...
ROW 24 : ... .. . ... : ... .. . ... : ... .. . ... : ... .. . ... : ... .. . ...
ROW 25 : ... .. . ... : ... .. . ... : ... .. . ... : ... .. . ... : ... .. . ...
ROW 26 : ... .. . ... : ... .. . ... : ... .. . ... : ... .. . ... : ... .. . ...
ROW 27 : ... .. . ... : ... .. . ... : ... .. . ... : ... .. . ... : ... .. . ...
ROW 28 : ... .. . ... : ... .. . ... : ... .. . ... : ... .. . ... : ... .. . ...
ROW 29 : ... .. . ... : ... .. . ... : ... .. . ... : ... .. . ... : ... .. . ...
ROW 2A : ... .. . ... : ... .. . ... : ... .. . ... : ... .. . ... : ... .. . ...
ROW 2B : ... .. . ... : ... .. . ... : ... .. . ... : ... .. . ... : ... .. . ...
ROW 2C : ... .. . ... : ... .. . ... : ... .. . ... : ... .. . ... : ... .. . ...
ROW 2D : ... .. . ... : ... .. . ... : ... .. . ... : ... .. . ... : ... .. . ...
ROW 2E : ... .. . ... : ... .. . ... : ... .. . ... : ... .. . ... : ... .. . ...
ROW 2F : ... .. . ... : ... .. . ... : ... .. . ... : ... .. . ... : ... .. . ...

TRACK 144   7 165 "New song"
COLUMNS : 1 1 1 1 1

ORDER 00 : 00 00 00 00 00

PATTERN 00
ROW 00 : ... .. . ... : C-3 0C . ... : C-3 07 . ... : ... .. . ... : ... .. . ...
ROW 01 : ... .. . ... : ... .. . ... : --- .. . ... : ... .. . ... : ... .. . ...
ROW 02 : ... .. . ... : E-3 0C . ... : ... .. . ... : ... .. . ... : ... .. . ...
ROW 03 : ... .. . ... : G-3 0C . ... : C-3 07 . ... : ... .. . ... : ... .. . ...
ROW 04 : ... .. . ... : ... .. . ... : --- .. . ... : ... .. . ... : ... .. . ...
ROW 05 : ... .. . ... : ... .. . ... : ... .. . ... : ... .. . ... : ... .. . ...
ROW 06 : ... .. . ... : G-3 0C . ... : C-3 07 . ... : ... .. . ... : ... .. . ...
ROW 07 : ... .. . ... : ... .. . ... : --- .. . ... : ... .. . ... : ... .. . ...
ROW 08 : ... .. . ... : ... .. . ... : ... .. . ... : ... .. . ... : ... .. . ...
ROW 09 : ... .. . ... : A-3 0C . ... : C-3 07 . ... : ... .. . ... : ... .. . ...
ROW 0A : ... .. . ... : ... .. . ... : --- .. . ... : ... .. . ... : ... .. . ...
ROW 0B : ... .. . ... : ... .. . ... : ... .. . ... : ... .. . ... : ... .. . ...
ROW 0C : ... .. . ... : G-3 0C . ... : C-3 07 . ... : ... .. . ... : ... .. . ...
ROW 0D : ... .. . ... : ... .. . ... : --- .. . ... : ... .. . ... : ... .. . ...
ROW 0E : ... .. . ... : ... .. . ... : ... .. . ... : ... .. . ... : ... .. . ...
ROW 0F : ... .. . ... : E-3 0C . ... : C-3 07 . ... : ... .. . ... : ... .. . ...
ROW 10 : ... .. . ... : ... .. . ... : --- .. . ... : ... .. . ... : ... .. . ...
ROW 11 : ... .. . ... : ... .. . ... : ... .. . ... : ... .. . ... : ... .. . ...
ROW 12 : ... .. . ... : E-3 0C . ... : C-3 07 . ... : ... .. . ... : ... .. . ...
ROW 13 : ... .. . ... : ... .. . ... : --- .. . ... : ... .. . ... : ... .. . ...
ROW 14 : ... .. . ... : D-3 0C . ... : ... .. . ... : ... .. . ... : ... .. . ...
ROW 15 : ... .. . ... : C-3 0C . ... : C-3 07 . ... : ... .. . ... : ... .. . ...
ROW 16 : ... .. . ... : ... .. . ... : --- .. . ... : ... .. . ... : ... .. . ...
ROW 17 : ... .. . ... : ... .. . ... : ... .. . ... : ... .. . ... : ... .. . ...
ROW 18 : ... .. . ... : D-3 0C . ... : C-3 07 . ... : ... .. . ... : ... .. . ...
ROW 19 : ... .. . ... : ... .. . ... : --- .. . ... : ... .. . ... : ... .. . ...
ROW 1A : ... .. . ... : ... .. . ... : ... .. . ... : ... .. . ... : ... .. . ...
ROW 1B : ... .. . ... : E-3 0C . ... : C-3 07 . ... : ... .. . ... : ... .. . ...
ROW 1C : ... .. . ... : ... .. . ... : --- .. . ... : ... .. . ... : ... .. . ...
ROW 1D : ... .. . ... : G-3 0C . ... : C-3 07 . ... : ... .. . ... : ... .. . ...
ROW 1E : ... .. . ... : G-3 0C . ... : C-3 07 . ... : ... .. . ... : ... .. . ...
ROW 1F : ... .. . ... : ... .. . ... : --- .. . ... : ... .. . ... : ... .. . ...
ROW 20 : ... .. . ... : ... .. . ... : ... .. . ... : ... .. . ... : ... .. . ...
ROW 21 : ... .. . ... : ... .. . ... : C-3 07 . ... : ... .. . ... : ... .. . ...
ROW 22 : ... .. . ... : ... .. . ... : --- .. . ... : ... .. . ... : ... .. . ...
ROW 23 : ... .. . ... : --- .. . ... : ... .. . ... : ... .. . ... : ... .. . ...
ROW 24 : ... .. . ... : C-4 0C . ... : C-3 07 . ... : ... .. . ... : ... .. . ...
ROW 25 : ... .. . ... : ... .. . ... : --- .. . ... : ... .. . ... : ... .. . ...
ROW 26 : ... .. . ... : ... .. . ... : ... .. . ... : ... .. . ... : ... .. . ...
ROW 27 : ... .. . ... : C-4 0C . ... : C-3 07 . ... : ... .. . ... : ... .. . ...
ROW 28 : ... .. . ... : ... .. . ... : --- .. . ... : ... .. . ... : ... .. . ...
ROW 29 : ... .. . ... : ... .. . ... : ... .. . ... : ... .. . ... : ... .. . ...
ROW 2A : ... .. . ... : ... .. . ... : C-3 07 . ... : ... .. . ... : ... .. . ...
ROW 2B : ... .. . ... : ... .. . ... : --- .. . ... : ... .. . ... : ... .. . ...
ROW 2C : ... .. . ... : ... .. . ... : ... .. . ... : ... .. . ... : ... .. . ...
ROW 2D : ... .. . ... : D-4 0C . ... : C-3 07 . ... : ... .. . ... : ... .. . ...
ROW 2E : ... .. . ... : ... .. . ... : --- .. . ... : ... .. . ... : ... .. . ...
ROW 2F : ... .. . ... : D-4 0C . ... : ... .. . ... : ... .. . ... : ... .. . ...
ROW 30 : ... .. . ... : C-4 0C . ... : C-3 07 . ... : ... .. . ... : ... .. . ...
ROW 31 : ... .. . ... : ... .. . ... : --- .. . ... : ... .. . ... : ... .. . ...
ROW 32 : ... .. . ... : A-3 0C . ... : ... .. . ... : ... .. . ... : ... .. . ...
ROW 33 : ... .. . ... : G-3 0C . ... : C-3 07 . ... : ... .. . ... : ... .. . ...
ROW 34 : ... .. . ... : ... .. . ... : --- .. . ... : ... .. . ... : ... .. . ...
ROW 35 : ... .. . ... : ... .. . ... : ... .. . ... : ... .. . ... : ... .. . ...
ROW 36 : ... .. . ... : A-3 0C . ... : A#2 07 . ... : ... .. . ... : ... .. . ...
ROW 37 : ... .. . ... : ... .. . ... : --- .. . ... : ... .. . ... : ... .. . ...
ROW 38 : ... .. . ... : G-3 0C . ... : A#2 07 . ... : ... .. . ... : ... .. . ...
ROW 39 : ... .. . ... : G-3 0C . ... : A#2 07 . ... : ... .. . ... : ... .. . ...
ROW 3A : ... .. . ... : ... .. . ... : --- .. . ... : ... .. . ... : ... .. . ...
ROW 3B : ... .. . ... : ... .. . ... : ... .. . ... : ... .. . ... : ... .. . ...
ROW 3C : ... .. . ... : C-3 0C . ... : A-2 07 . ... : ... .. . ... : ... .. . ...
ROW 3D : ... .. . ... : ... .. . ... : --- .. . ... : ... .. . ... : ... .. . ...
ROW 3E : ... .. . ... : ... .. . ... : ... .. . ... : ... .. . ... : ... .. . ...
ROW 3F : ... .. . ... : E-3 0C . ... : F#2 07 . ... : ... .. . ... : ... .. . ...
ROW 40 : ... .. . ... : ... .. . ... : --- .. . ... : ... .. . ... : ... .. . ...
ROW 41 : ... .. . ... : G-3 0C . ... : F#2 07 . ... : ... .. . ... : ... .. . ...
ROW 42 : ... .. . ... : D-3 0C . ... : G-2 07 . ... : ... .. . ... : ... .. . ...
ROW 43 : ... .. . ... : ... .. . ... : ... .. . ... : ... .. . ... : ... .. . ...
ROW 44 : ... .. . ... : ... .. . ... : ... .. . ... : ... .. . ... : ... .. . ...
ROW 45 : ... .. . ... : ... .. . ... : ... .. . ... : ... .. . ... : ... .. . ...
ROW 46 : ... .. . ... : ... .. . ... : ... .. . ... : ... .. . ... : ... .. . ...
ROW 47 : ... .. . ... : --- .. . ... : --- .. . ... : ... .. . ... : ... .. . ...
ROW 48 : ... .. . ... : E-3 0C . ... : C-3 07 . ... : ... .. . ... : ... .. . ...
ROW 49 : ... .. . ... : ... .. . ... : --- .. . ... : ... .. . ... : ... .. . ...
ROW 4A : ... .. . ... : D-3 0C . ... : C-3 07 . ... : ... .. . ... : ... .. . ...
ROW 4B : ... .. . ... : C-3 0C . ... : C-3 07 . ... : ... .. . ... : ... .. . ...
ROW 4C : ... .. . ... : ... .. . ... : --- .. . ... : ... .. . ... : ... .. . ...
ROW 4D : ... .. . ... : ... .. . ... : ... .. . ... : ... .. . ... : ... .. . ...
ROW 4E : ... .. . ... : D-3 0C . ... : C-3 07 . ... : ... .. . ... : ... .. . ...
ROW 4F : ... .. . ... : ... .. . ... : --- .. . ... : ... .. . ... : ... .. . ...
ROW 50 : ... .. . ... : ... .. . ... : ... .. . ... : ... .. . ... : ... .. . ...
ROW 51 : ... .. . ... : E-3 0C . ... : C-3 07 . ... : ... .. . ... : ... .. . ...
ROW 52 : ... .. . ... : ... .. . ... : --- .. . ... : ... .. . ... : ... .. . ...
ROW 53 : ... .. . ... : G-3 0C . ... : C-3 07 . ... : ... .. . ... : ... .. . ...
ROW 54 : ... .. . ... : G-3 0C . ... : C-3 07 . ... : ... .. . ... : ... .. . ...
ROW 55 : ... .. . ... : ... .. . ... : --- .. . ... : ... .. . ... : ... .. . ...
ROW 56 : ... .. . ... : ... .. . ... : ... .. . ... : ... .. . ... : ... .. . ...
ROW 57 : ... .. . ... : G-3 0C . ... : C-3 07 . ... : ... .. . ... : ... .. . ...
ROW 58 : ... .. . ... : ... .. . ... : --- .. . ... : ... .. . ... : ... .. . ...
ROW 59 : ... .. . ... : ... .. . ... : ... .. . ... : ... .. . ... : ... .. . ...
ROW 5A : ... .. . ... : A-3 0C . ... : C-3 07 . ... : ... .. . ... : ... .. . ...
ROW 5B : ... .. . ... : ... .. . ... : --- .. . ... : ... .. . ... : ... .. . ...
ROW 5C : ... .. . ... : G-3 0C . ... : C-3 07 . ... : ... .. . ... : ... .. . ...
ROW 5D : ... .. . ... : G-3 0C . ... : C-3 07 . ... : ... .. . ... : ... .. . ...
ROW 5E : ... .. . ... : ... .. . ... : --- .. . ... : ... .. . ... : ... .. . ...
ROW 5F : ... .. . ... : ... .. . ... : ... .. . ... : ... .. . ... : ... .. . ...
ROW 60 : ... .. . ... : G-3 0C . ... : C-3 07 . ... : ... .. . ... : ... .. . ...
ROW 61 : ... .. . ... : ... .. . ... : --- .. . ... : ... .. . ... : ... .. . ...
ROW 62 : ... .. . ... : ... .. . ... : ... .. . ... : ... .. . ... : ... .. . ...
ROW 63 : ... .. . ... : E-3 0C . ... : C-3 07 . ... : ... .. . ... : ... .. . ...
ROW 64 : ... .. . ... : ... .. . ... : --- .. . ... : ... .. . ... : ... .. . ...
ROW 65 : ... .. . ... : G-3 0C . ... : C-3 07 . ... : ... .. . ... : ... .. . ...
ROW 66 : ... .. . ... : G-3 0C . ... : C-3 07 . ... : ... .. . ... : ... .. . ...
ROW 67 : ... .. . ... : ... .. . ... : --- .. . ... : ... .. . ... : ... .. . ...
ROW 68 : ... .. . ... : ... .. . ... : ... .. . ... : ... .. . ... : ... .. . ...
ROW 69 : ... .. . ... : ... .. . ... : C-3 07 . ... : ... .. . ... : ... .. . ...
ROW 6A : ... .. . ... : ... .. . ... : --- .. . ... : ... .. . ... : ... .. . ...
ROW 6B : ... .. . ... : --- .. . ... : ... .. . ... : ... .. . ... : ... .. . ...
ROW 6C : ... .. . ... : C-4 0C . ... : A#2 07 . ... : ... .. . ... : ... .. . ...
ROW 6D : ... .. . ... : ... .. . ... : --- .. . ... : ... .. . ... : ... .. . ...
ROW 6E : ... .. . ... : C-4 0C . ... : A#2 07 . ... : ... .. . ... : ... .. . ...
ROW 6F : ... .. . ... : C-4 0C . ... : A#2 07 . ... : ... .. . ... : ... .. . ...
ROW 70 : ... .. . ... : ... .. . ... : --- .. . ... : ... .. . ... : ... .. . ...
ROW 71 : ... .. . ... : ... .. . ... : ... .. . ... : ... .. . ... : ... .. . ...
ROW 72 : ... .. . ... : C-4 0C . ... : A#2 07 . ... : ... .. . ... : ... .. . ...
ROW 73 : ... .. . ... : ... .. . ... : --- .. . ... : ... .. . ... : ... .. . ...
ROW 74 : ... .. . ... : ... .. . ... : ... .. . ... : ... .. . ... : ... .. . ...
ROW 75 : ... .. . ... : A-3 0C . ... : A-2 07 . ... : ... .. . ... : ... .. . ...
ROW 76 : ... .. . ... : ... .. . ... : --- .. . ... : ... .. . ... : ... .. . ...
ROW 77 : ... .. . ... : C-4 0C . ... : A-2 07 . ... : ... .. . ... : ... .. . ...
ROW 78 : ... .. . ... : C-4 0C . ... : A-2 07 . ... : ... .. . ... : ... .. . ...
ROW 79 : ... .. . ... : ... .. . ... : --- .. . ... : ... .. . ... : ... .. . ...
ROW 7A : ... .. . ... : ... .. . ... : ... .. . ... : ... .. . ... : ... .. . ...
ROW 7B : ... .. . ... : ... .. . ... : A-2 0C . ... : ... .. . ... : ... .. . ...
ROW 7C : ... .. . ... : ... .. . ... : --- .. . ... : ... .. . ... : ... .. . ...
ROW 7D : ... .. . ... : --- .. . ... : F#2 07 . ... : ... .. . ... : ... .. . ...
ROW 7E : ... .. . ... : A-3 0C . ... : G-2 07 . ... : ... .. . ... : ... .. . ...
ROW 7F : ... .. . ... : ... .. . ... : --- .. . ... : ... .. . ... : ... .. . ...
ROW 80 : ... .. . ... : ... .. . ... : ... .. . ... : ... .. . ... : ... .. . ...
ROW 81 : ... .. . ... : G-3 0C . ... : G-2 07 . ... : ... .. . ... : ... .. . ...
ROW 82 : ... .. . ... : ... .. . ... : --- .. . ... : ... .. . ... : ... .. . ...
ROW 83 : ... .. . ... : G-3 0C . ... : G-2 07 . ... : ... .. . ... : ... .. . ...
ROW 84 : ... .. . ... : G-3 0C . ... : G-2 07 . ... : ... .. . ... : ... .. . ...
ROW 85 : ... .. . ... : ... .. . ... : --- .. . ... : ... .. . ... : ... .. . ...
ROW 86 : ... .. . ... : G-3 0C . ... : G-2 07 . ... : ... .. . ... : ... .. . ...
ROW 87 : ... .. . ... : C-3 0C . ... : C-3 07 . ... : ... .. . ... : ... .. . ...
ROW 88 : ... .. . ... : ... .. . ... : ... .. . ... : ... .. . ... : ... .. . ...
ROW 89 : ... .. . ... : ... .. . ... : ... .. . ... : ... .. . ... : ... .. . ...
ROW 8A : ... .. . ... : ... .. . ... : ... .. . ... : ... .. . ... : ... .. . ...
ROW 8B : ... .. . ... : ... .. . ... : ... .. . ... : ... .. . ... : ... .. . ...
ROW 8C : ... .. . ... : ... .. . ... : ... .. . ... : ... .. . ... : ... .. . ...
ROW 8D : ... .. . ... : --- .. . ... : --- .. . ... : ... .. . ... : ... .. . ...
ROW 8E : ... .. . ... : ... .. . ... : ... .. . ... : ... .. . ... : ... .. . ...
ROW 8F : ... .. . ... : ... .. . ... : ... .. . ... : ... .. . ... : ... .. . ...

PATTERN 01
ROW 00 : ... .. . ... : ... .. . ... : C-3 07 . ... : ... .. . ... : ... .. . ...
ROW 01 : ... .. . ... : ... .. . ... : ... .. . ... : ... .. . ... : ... .. . ...
ROW 02 : ... .. . ... : ... .. . ... : E-3 07 . ... : ... .. . ... : ... .. . ...
ROW 03 : ... .. . ... : ... .. . ... : --- 07 . ... : ... .. . ... : ... .. . ...
ROW 04 : ... .. . ... : ... .. . ... : G-3 07 . ... : ... .. . ... : ... .. . ...
ROW 05 : ... .. . ... : ... .. . ... : --- .. . ... : ... .. . ... : ... .. . ...
ROW 06 : ... .. . ... : ... .. . ... : ... .. . ... : ... .. . ... : ... .. . ...
ROW 07 : ... .. . ... : ... .. . ... : ... .. . ... : ... .. . ... : ... .. . ...
ROW 08 : ... .. . ... : ... .. . ... : A#3 07 . ... : ... .. . ... : ... .. . ...
ROW 09 : ... .. . ... : ... .. . ... : --- .. . ... : ... .. . ... : ... .. . ...
ROW 0A : ... .. . ... : ... .. . ... : ... .. . ... : ... .. . ... : ... .. . ...
ROW 0B : ... .. . ... : ... .. . ... : ... .. . ... : ... .. . ... : ... .. . ...
ROW 0C : ... .. . ... : ... .. . ... : A-3 07 . ... : ... .. . ... : ... .. . ...
ROW 0D : ... .. . ... : ... .. . ... : --- .. . ... : ... .. . ... : ... .. . ...
ROW 0E : ... .. . ... : ... .. . ... : ... .. . ... : ... .. . ... : ... .. . ...
ROW 0F : ... .. . ... : ... .. . ... : ... .. . ... : ... .. . ... : ... .. . ...
ROW 10 : ... .. . ... : ... .. . ... : G-3 07 . ... : ... .. . ... : ... .. . ...
ROW 11 : ... .. . ... : ... .. . ... : --- .. . ... : ... .. . ... : ... .. . ...
ROW 12 : ... .. . ... : ... .. . ... : F#3 07 . ... : ... .. . ... : ... .. . ...
ROW 13 : ... .. . ... : ... .. . ... : --- .. . ... : ... .. . ... : ... .. . ...
ROW 14 : ... .. . ... : ... .. . ... : G-3 07 . ... : ... .. . ... : ... .. . ...
ROW 15 : ... .. . ... : ... .. . ... : --- .. . ... : ... .. . ... : ... .. . ...
ROW 16 : ... .. . ... : ... .. . ... : ... .. . ... : ... .. . ... : ... .. . ...
ROW 17 : ... .. . ... : ... .. . ... : ... .. . ... : ... .. . ... : ... .. . ...
ROW 18 : ... .. . ... : ... .. . ... : D#3 07 . ... : ... .. . ... : ... .. . ...
ROW 19 : ... .. . ... : ... .. . ... : --- .. . ... : ... .. . ... : ... .. . ...
ROW 1A : ... .. . ... : ... .. . ... : E-3 07 . ... : ... .. . ... : ... .. . ...
ROW 1B : ... .. . ... : ... .. . ... : --- 07 . ... : ... .. . ... : ... .. . ...
ROW 1C : ... .. . ... : ... .. . ... : D#3 07 . ... : ... .. . ... : ... .. . ...
ROW 1D : ... .. . ... : ... .. . ... : --- .. . ... : ... .. . ... : ... .. . ...
ROW 1E : ... .. . ... : ... .. . ... : E-3 07 . ... : ... .. . ... : ... .. . ...
ROW 1F : ... .. . ... : ... .. . ... : --- 07 . ... : ... .. . ... : ... .. . ...
ROW 20 : ... .. . ... : ... .. . ... : ... .. . ... : ... .. . ... : ... .. . ...
ROW 21 : ... .. . ... : ... .. . ... : ... .. . ... : ... .. . ... : ... .. . ...
ROW 22 : ... .. . ... : ... .. . ... : ... .. . ... : ... .. . ... : ... .. . ...
ROW 23 : ... .. . ... : ... .. . ... : ... .. . ... : ... .. . ... : ... .. . ...
ROW 24 : ... .. . ... : ... .. . ... : ... .. . ... : ... .. . ... : ... .. . ...
ROW 25 : ... .. . ... : ... .. . ... : ... .. . ... : ... .. . ... : ... .. . ...
ROW 26 : ... .. . ... : ... .. . ... : ... .. . ... : ... .. . ... : ... .. . ...
ROW 27 : ... .. . ... : ... .. . ... : ... .. . ... : ... .. . ... : ... .. . ...
ROW 28 : ... .. . ... : ... .. . ... : ... .. . ... : ... .. . ... : ... .. . ...
ROW 29 : ... .. . ... : ... .. . ... : ... .. . ... : ... .. . ... : ... .. . ...
ROW 2A : ... .. . ... : ... .. . ... : ... .. . ... : ... .. . ... : ... .. . ...
ROW 2B : ... .. . ... : ... .. . ... : ... .. . ... : ... .. . ... : ... .. . ...
ROW 2C : ... .. . ... : ... .. . ... : ... .. . ... : ... .. . ... : ... .. . ...
ROW 2D : ... .. . ... : ... .. . ... : ... .. . ... : ... .. . ... : ... .. . ...
ROW 2E : ... .. . ... : ... .. . ... : ... .. . ... : ... .. . ... : ... .. . ...
ROW 2F : ... .. . ... : ... .. . ... : ... .. . ... : ... .. . ... : ... .. . ...
ROW 30 : ... .. . ... : ... .. . ... : ... .. . ... : ... .. . ... : ... .. . ...
ROW 31 : ... .. . ... : ... .. . ... : ... .. . ... : ... .. . ... : ... .. . ...
ROW 32 : ... .. . ... : ... .. . ... : ... .. . ... : ... .. . ... : ... .. . ...
ROW 33 : ... .. . ... : ... .. . ... : ... .. . ... : ... .. . ... : ... .. . ...
ROW 34 : ... .. . ... : ... .. . ... : ... .. . ... : ... .. . ... : ... .. . ...
ROW 35 : ... .. . ... : ... .. . ... : ... .. . ... : ... .. . ... : ... .. . ...
ROW 36 : ... .. . ... : ... .. . ... : ... .. . ... : ... .. . ... : ... .. . ...
ROW 37 : ... .. . ... : ... .. . ... : ... .. . ... : ... .. . ... : ... .. . ...
ROW 38 : ... .. . ... : ... .. . ... : ... .. . ... : ... .. . ... : ... .. . ...
ROW 39 : ... .. . ... : ... .. . ... : ... .. . ... : ... .. . ... : ... .. . ...
ROW 3A : ... .. . ... : ... .. . ... : ... .. . ... : ... .. . ... : ... .. . ...
ROW 3B : ... .. . ... : ... .. . ... : ... .. . ... : ... .. . ... : ... .. . ...
ROW 3C : ... .. . ... : ... .. . ... : ... .. . ... : ... .. . ... : ... .. . ...
ROW 3D : ... .. . ... : ... .. . ... : ... .. . ... : ... .. . ... : ... .. . ...
ROW 3E : ... .. . ... : ... .. . ... : ... .. . ... : ... .. . ... : ... .. . ...
ROW 3F : ... .. . ... : ... .. . ... : ... .. . ... : ... .. . ... : ... .. . ...
ROW 40 : ... .. . ... : ... .. . ... : ... .. . ... : ... .. . ... : ... .. . ...
ROW 41 : ... .. . ... : ... .. . ... : ... .. . ... : ... .. . ... : ... .. . ...
ROW 42 : ... .. . ... : ... .. . ... : ... .. . ... : ... .. . ... : ... .. . ...
ROW 43 : ... .. . ... : ... .. . ... : ... .. . ... : ... .. . ... : ... .. . ...
ROW 44 : ... .. . ... : ... .. . ... : ... .. . ... : ... .. . ... : ... .. . ...
ROW 45 : ... .. . ... : ... .. . ... : ... .. . ... : ... .. . ... : ... .. . ...
ROW 46 : ... .. . ... : ... .. . ... : ... .. . ... : ... .. . ... : ... .. . ...
ROW 47 : ... .. . ... : ... .. . ... : ... .. . ... : ... .. . ... : ... .. . ...
ROW 48 : ... .. . ... : ... .. . ... : ... .. . ... : ... .. . ... : ... .. . ...
ROW 49 : ... .. . ... : ... .. . ... : ... .. . ... : ... .. . ... : ... .. . ...
ROW 4A : ... .. . ... : ... .. . ... : ... .. . ... : ... .. . ... : ... .. . ...
ROW 4B : ... .. . ... : ... .. . ... : ... .. . ... : ... .. . ... : ... .. . ...
ROW 4C : ... .. . ... : ... .. . ... : ... .. . ... : ... .. . ... : ... .. . ...
ROW 4D : ... .. . ... : ... .. . ... : ... .. . ... : ... .. . ... : ... .. . ...
ROW 4E : ... .. . ... : ... .. . ... : ... .. . ... : ... .. . ... : ... .. . ...
ROW 4F : ... .. . ... : ... .. . ... : ... .. . ... : ... .. . ... : ... .. . ...
ROW 50 : ... .. . ... : ... .. . ... : ... .. . ... : ... .. . ... : ... .. . ...
ROW 51 : ... .. . ... : ... .. . ... : ... .. . ... : ... .. . ... : ... .. . ...
ROW 52 : ... .. . ... : ... .. . ... : ... .. . ... : ... .. . ... : ... .. . ...
ROW 53 : ... .. . ... : ... .. . ... : ... .. . ... : ... .. . ... : ... .. . ...
ROW 54 : ... .. . ... : ... .. . ... : ... .. . ... : ... .. . ... : ... .. . ...
ROW 55 : ... .. . ... : ... .. . ... : ... .. . ... : ... .. . ... : ... .. . ...
ROW 56 : ... .. . ... : ... .. . ... : ... .. . ... : ... .. . ... : ... .. . ...
ROW 57 : ... .. . ... : ... .. . ... : ... .. . ... : ... .. . ... : ... .. . ...
ROW 58 : ... .. . ... : ... .. . ... : ... .. . ... : ... .. . ... : ... .. . ...
ROW 59 : ... .. . ... : ... .. . ... : ... .. . ... : ... .. . ... : ... .. . ...
ROW 5A : ... .. . ... : ... .. . ... : ... .. . ... : ... .. . ... : ... .. . ...
ROW 5B : ... .. . ... : ... .. . ... : ... .. . ... : ... .. . ... : ... .. . ...
ROW 5C : ... .. . ... : ... .. . ... : ... .. . ... : ... .. . ... : ... .. . ...
ROW 5D : ... .. . ... : ... .. . ... : ... .. . ... : ... .. . ... : ... .. . ...
ROW 5E : ... .. . ... : ... .. . ... : ... .. . ... : ... .. . ... : ... .. . ...
ROW 5F : ... .. . ... : ... .. . ... : ... .. . ... : ... .. . ... : ... .. . ...
ROW 60 : ... .. . ... : ... .. . ... : ... .. . ... : ... .. . ... : ... .. . ...
ROW 61 : ... .. . ... : ... .. . ... : ... .. . ... : ... .. . ... : ... .. . ...
ROW 62 : ... .. . ... : ... .. . ... : ... .. . ... : ... .. . ... : ... .. . ...
ROW 63 : ... .. . ... : ... .. . ... : ... .. . ... : ... .. . ... : ... .. . ...
ROW 64 : ... .. . ... : ... .. . ... : ... .. . ... : ... .. . ... : ... .. . ...
ROW 65 : ... .. . ... : ... .. . ... : ... .. . ... : ... .. . ... : ... .. . ...
ROW 66 : ... .. . ... : ... .. . ... : ... .. . ... : ... .. . ... : ... .. . ...
ROW 67 : ... .. . ... : ... .. . ... : ... .. . ... : ... .. . ... : ... .. . ...
ROW 68 : ... .. . ... : ... .. . ... : ... .. . ... : ... .. . ... : ... .. . ...
ROW 69 : ... .. . ... : ... .. . ... : ... .. . ... : ... .. . ... : ... .. . ...
ROW 6A : ... .. . ... : ... .. . ... : ... .. . ... : ... .. . ... : ... .. . ...
ROW 6B : ... .. . ... : ... .. . ... : ... .. . ... : ... .. . ... : ... .. . ...
ROW 6C : ... .. . ... : ... .. . ... : ... .. . ... : ... .. . ... : ... .. . ...
ROW 6D : ... .. . ... : ... .. . ... : ... .. . ... : ... .. . ... : ... .. . ...
ROW 6E : ... .. . ... : ... .. . ... : ... .. . ... : ... .. . ... : ... .. . ...
ROW 6F : ... .. . ... : ... .. . ... : ... .. . ... : ... .. . ... : ... .. . ...
ROW 70 : ... .. . ... : ... .. . ... : ... .. . ... : ... .. . ... : ... .. . ...
ROW 71 : ... .. . ... : ... .. . ... : ... .. . ... : ... .. . ... : ... .. . ...
ROW 72 : ... .. . ... : ... .. . ... : ... .. . ... : ... .. . ... : ... .. . ...
ROW 73 : ... .. . ... : ... .. . ... : ... .. . ... : ... .. . ... : ... .. . ...
ROW 74 : ... .. . ... : ... .. . ... : ... .. . ... : ... .. . ... : ... .. . ...
ROW 75 : ... .. . ... : ... .. . ... : ... .. . ... : ... .. . ... : ... .. . ...
ROW 76 : ... .. . ... : ... .. . ... : ... .. . ... : ... .. . ... : ... .. . ...
ROW 77 : ... .. . ... : ... .. . ... : ... .. . ... : ... .. . ... : ... .. . ...
ROW 78 : ... .. . ... : ... .. . ... : ... .. . ... : ... .. . ... : ... .. . ...
ROW 79 : ... .. . ... : ... .. . ... : ... .. . ... : ... .. . ... : ... .. . ...
ROW 7A : ... .. . ... : ... .. . ... : ... .. . ... : ... .. . ... : ... .. . ...
ROW 7B : ... .. . ... : ... .. . ... : ... .. . ... : ... .. . ... : ... .. . ...
ROW 7C : ... .. . ... : ... .. . ... : ... .. . ... : ... .. . ... : ... .. . ...
ROW 7D : ... .. . ... : ... .. . ... : ... .. . ... : ... .. . ... : ... .. . ...
ROW 7E : ... .. . ... : ... .. . ... : ... .. . ... : ... .. . ... : ... .. . ...
ROW 7F : ... .. . ... : ... .. . ... : ... .. . ... : ... .. . ... : ... .. . ...
ROW 80 : ... .. . ... : ... .. . ... : ... .. . ... : ... .. . ... : ... .. . ...
ROW 81 : ... .. . ... : ... .. . ... : ... .. . ... : ... .. . ... : ... .. . ...
ROW 82 : ... .. . ... : ... .. . ... : ... .. . ... : ... .. . ... : ... .. . ...
ROW 83 : ... .. . ... : ... .. . ... : ... .. . ... : ... .. . ... : ... .. . ...
ROW 84 : ... .. . ... : ... .. . ... : ... .. . ... : ... .. . ... : ... .. . ...
ROW 85 : ... .. . ... : ... .. . ... : ... .. . ... : ... .. . ... : ... .. . ...
ROW 86 : ... .. . ... : ... .. . ... : ... .. . ... : ... .. . ... : ... .. . ...
ROW 87 : ... .. . ... : ... .. . ... : ... .. . ... : ... .. . ... : ... .. . ...
ROW 88 : ... .. . ... : ... .. . ... : ... .. . ... : ... .. . ... : ... .. . ...
ROW 89 : ... .. . ... : ... .. . ... : ... .. . ... : ... .. . ... : ... .. . ...
ROW 8A : ... .. . ... : ... .. . ... : ... .. . ... : ... .. . ... : ... .. . ...
ROW 8B : ... .. . ... : ... .. . ... : ... .. . ... : ... .. . ... : ... .. . ...
ROW 8C : ... .. . ... : ... .. . ... : ... .. . ... : ... .. . ... : ... .. . ...
ROW 8D : ... .. . ... : ... .. . ... : ... .. . ... : ... .. . ... : ... .. . ...
ROW 8E : ... .. . ... : ... .. . ... : ... .. . ... : ... .. . ... : ... .. . ...
ROW 8F : ... .. . ... : ... .. . ... : ... .. . ... : ... .. . ... : ... .. . ...

TRACK  64   6 150 "voice_quarto"
COLUMNS : 1 1 1 1 1

ORDER 00 : 00 00 00 00 00

PATTERN 00
ROW 00 : ... .. . ... : ... .. . ... : ... .. . ... : ... .. . ... : D-3 00 . ...
ROW 01 : ... .. . ... : ... .. . ... : ... .. . ... : ... .. . ... : ... .. . ...
ROW 02 : ... .. . ... : ... .. . ... : ... .. . ... : ... .. . ... : ... .. . ...
ROW 03 : ... .. . ... : ... .. . ... : ... .. . ... : ... .. . ... : ... .. . ...
ROW 04 : ... .. . ... : ... .. . ... : ... .. . ... : ... .. . ... : ... .. . ...
ROW 05 : ... .. . ... : ... .. . ... : ... .. . ... : ... .. . ... : ... .. . ...
ROW 06 : ... .. . ... : ... .. . ... : ... .. . ... : ... .. . ... : ... .. . ...
ROW 07 : ... .. . ... : ... .. . ... : ... .. . ... : ... .. . ... : ... .. . ...
ROW 08 : ... .. . ... : ... .. . ... : ... .. . ... : ... .. . ... : ... .. . ...
ROW 09 : ... .. . ... : ... .. . ... : ... .. . ... : ... .. . ... : ... .. . ...
ROW 0A : ... .. . ... : ... .. . ... : ... .. . ... : ... .. . ... : ... .. . ...
ROW 0B : ... .. . ... : ... .. . ... : ... .. . ... : ... .. . ... : ... .. . ...
ROW 0C : ... .. . ... : ... .. . ... : ... .. . ... : ... .. . ... : ... .. . ...
ROW 0D : ... .. . ... : ... .. . ... : ... .. . ... : ... .. . ... : ... .. . ...
ROW 0E : ... .. . ... : ... .. . ... : ... .. . ... : ... .. . ... : ... .. . ...
ROW 0F : ... .. . ... : ... .. . ... : ... .. . ... : ... .. . ... : ... .. . ...
ROW 10 : ... .. . ... : ... .. . ... : ... .. . ... : ... .. . ... : ... .. . ...
ROW 11 : ... .. . ... : ... .. . ... : ... .. . ... : ... .. . ... : ... .. . ...
ROW 12 : ... .. . ... : ... .. . ... : ... .. . ... : ... .. . ... : ... .. . ...
ROW 13 : ... .. . ... : ... .. . ... : ... .. . ... : ... .. . ... : ... .. . ...
ROW 14 : ... .. . ... : ... .. . ... : ... .. . ... : ... .. . ... : ... .. . ...
ROW 15 : ... .. . ... : ... .. . ... : ... .. . ... : ... .. . ... : ... .. . ...
ROW 16 : ... .. . ... : ... .. . ... : ... .. . ... : ... .. . ... : ... .. . ...
ROW 17 : ... .. . ... : ... .. . ... : ... .. . ... : ... .. . ... : ... .. . ...
ROW 18 : ... .. . ... : ... .. . ... : ... .. . ... : ... .. . ... : ... .. . ...
ROW 19 : ... .. . ... : ... .. . ... : ... .. . ... : ... .. . ... : ... .. . ...
ROW 1A : ... .. . ... : ... .. . ... : ... .. . ... : ... .. . ... : ... .. . ...
ROW 1B : ... .. . ... : ... .. . ... : ... .. . ... : ... .. . ... : ... .. . ...
ROW 1C : ... .. . ... : ... .. . ... : ... .. . ... : ... .. . ... : ... .. . ...
ROW 1D : ... .. . ... : ... .. . ... : ... .. . ... : ... .. . ... : ... .. . ...
ROW 1E : ... .. . ... : ... .. . ... : ... .. . ... : ... .. . ... : ... .. . ...
ROW 1F : ... .. . ... : ... .. . ... : ... .. . ... : ... .. . ... : ... .. . ...
ROW 20 : ... .. . ... : ... .. . ... : ... .. . ... : ... .. . ... : ... .. . ...
ROW 21 : ... .. . ... : ... .. . ... : ... .. . ... : ... .. . ... : ... .. . ...
ROW 22 : ... .. . ... : ... .. . ... : ... .. . ... : ... .. . ... : ... .. . ...
ROW 23 : ... .. . ... : ... .. . ... : ... .. . ... : ... .. . ... : ... .. . ...
ROW 24 : ... .. . ... : ... .. . ... : ... .. . ... : ... .. . ... : ... .. . ...
ROW 25 : ... .. . ... : ... .. . ... : ... .. . ... : ... .. . ... : ... .. . ...
ROW 26 : ... .. . ... : ... .. . ... : ... .. . ... : ... .. . ... : ... .. . ...
ROW 27 : ... .. . ... : ... .. . ... : ... .. . ... : ... .. . ... : ... .. . ...
ROW 28 : ... .. . ... : ... .. . ... : ... .. . ... : ... .. . ... : ... .. . ...
ROW 29 : ... .. . ... : ... .. . ... : ... .. . ... : ... .. . ... : ... .. . ...
ROW 2A : ... .. . ... : ... .. . ... : ... .. . ... : ... .. . ... : ... .. . ...
ROW 2B : ... .. . ... : ... .. . ... : ... .. . ... : ... .. . ... : ... .. . ...
ROW 2C : ... .. . ... : ... .. . ... : ... .. . ... : ... .. . ... : ... .. . ...
ROW 2D : ... .. . ... : ... .. . ... : ... .. . ... : ... .. . ... : ... .. . ...
ROW 2E : ... .. . ... : ... .. . ... : ... .. . ... : ... .. . ... : ... .. . ...
ROW 2F : ... .. . ... : ... .. . ... : ... .. . ... : ... .. . ... : ... .. . ...
ROW 30 : ... .. . ... : ... .. . ... : ... .. . ... : ... .. . ... : ... .. . ...
ROW 31 : ... .. . ... : ... .. . ... : ... .. . ... : ... .. . ... : ... .. . ...
ROW 32 : ... .. . ... : ... .. . ... : ... .. . ... : ... .. . ... : ... .. . ...
ROW 33 : ... .. . ... : ... .. . ... : ... .. . ... : ... .. . ... : ... .. . ...
ROW 34 : ... .. . ... : ... .. . ... : ... .. . ... : ... .. . ... : ... .. . ...
ROW 35 : ... .. . ... : ... .. . ... : ... .. . ... : ... .. . ... : ... .. . ...
ROW 36 : ... .. . ... : ... .. . ... : ... .. . ... : ... .. . ... : ... .. . ...
ROW 37 : ... .. . ... : ... .. . ... : ... .. . ... : ... .. . ... : ... .. . ...
ROW 38 : ... .. . ... : ... .. . ... : ... .. . ... : ... .. . ... : ... .. . ...
ROW 39 : ... .. . ... : ... .. . ... : ... .. . ... : ... .. . ... : ... .. . ...
ROW 3A : ... .. . ... : ... .. . ... : ... .. . ... : ... .. . ... : ... .. . ...
ROW 3B : ... .. . ... : ... .. . ... : ... .. . ... : ... .. . ... : ... .. . ...
ROW 3C : ... .. . ... : ... .. . ... : ... .. . ... : ... .. . ... : ... .. . ...
ROW 3D : ... .. . ... : ... .. . ... : ... .. . ... : ... .. . ... : ... .. . ...
ROW 3E : ... .. . ... : ... .. . ... : ... .. . ... : ... .. . ... : ... .. . ...
ROW 3F : ... .. . ... : ... .. . ... : ... .. . ... : ... .. . ... : ... .. . ...

TRACK  48   4 105 "game2"
COLUMNS : 1 1 1 1 1

ORDER 00 : 02 02 02 00 00
ORDER 01 : 03 03 02 00 00

PATTERN 00
ROW 00 : C-4 08 . ... : C-4 0D . ... : C-4 00 . ... : F-# 0A . ... : C-4 00 . ...
ROW 01 : ... .. . ... : ... .. . ... : ... .. . ... : ... .. . ... : ... .. . ...
ROW 02 : G-4 08 . ... : G-4 0D . ... : ... .. . ... : 2-# 09 . ... : E-4 00 . ...
ROW 03 : C-5 08 . ... : C-5 0D . ... : ... .. . ... : 7-# 09 . ... : ... .. . ...
ROW 04 : ... .. . ... : ... .. . ... : ... .. . ... : ... .. . ... : ... .. . ...
ROW 05 : G-4 08 . ... : G-4 0D . ... : ... .. . ... : ... .. . ... : E-4 00 . ...
ROW 06 : G#4 08 . ... : G#4 0D . ... : ... .. . ... : 2-# 0A . ... : D#4 00 . ...
ROW 07 : ... .. . ... : ... .. . ... : ... .. . ... : ... .. . ... : ... .. . ...
ROW 08 : G-4 08 . ... : G-4 0D . ... : ... .. . ... : 7-# 09 . ... : ... .. . ...
ROW 09 : F#4 08 . ... : F#4 0D . ... : ... .. . ... : 2-# 09 . ... : ... .. . ...
ROW 0A : ... .. . ... : ... .. . ... : ... .. . ... : ... .. . ... : ... .. . ...
ROW 0B : G-4 08 . ... : G-4 0D . ... : ... .. . ... : ... .. . ... : ... .. . ...
ROW 0C : ... .. . ... : ... .. . ... : ... .. . ... : F-# 0A . ... : C-4 00 . ...
ROW 0D : ... .. . ... : ... .. . ... : ... .. . ... : ... .. . ... : ... .. . ...
ROW 0E : ... .. . ... : ... .. . ... : ... .. . ... : 2-# 09 . ... : ... .. . ...
ROW 0F : ... .. . ... : ... .. . ... : ... .. . ... : 7-# 09 . ... : ... .. . ...
ROW 10 : ... .. . ... : ... .. . ... : ... .. . ... : ... .. . ... : ... .. . ...
ROW 11 : ... .. . ... : ... .. . ... : ... .. . ... : ... .. . ... : ... .. . ...
ROW 12 : ... .. . ... : ... .. . ... : ... .. . ... : 2-# 0A . ... : D#4 00 . ...
ROW 13 : ... .. . ... : ... .. . ... : ... .. . ... : ... .. . ... : ... .. . ...
ROW 14 : ... .. . ... : ... .. . ... : ... .. . ... : 7-# 09 . ... : ... .. . ...
ROW 15 : C-5 08 . ... : C-5 0D . ... : ... .. . ... : 2-# 09 . ... : ... .. . ...
ROW 16 : ... .. . ... : ... .. . ... : ... .. . ... : ... .. . ... : ... .. . ...
ROW 17 : G-4 08 . ... : G-4 0D . ... : ... .. . ... : ... .. . ... : ... .. . ...
ROW 18 : D-5 08 . ... : D-5 0D . ... : B-3 00 . ... : F-# 0A . ... : C-4 00 . ...
ROW 19 : ... .. . ... : ... .. . ... : ... .. . ... : ... .. . ... : ... .. . ...
ROW 1A : ... .. . ... : ... .. . ... : ... .. . ... : ... .. . ... : E-4 00 . ...
ROW 1B : ... .. . ... : ... .. . ... : ... .. . ... : 7-# 09 . ... : ... .. . ...
ROW 1C : ... .. . ... : ... .. . ... : ... .. . ... : ... .. . ... : ... .. . ...
ROW 1D : ... .. . ... : ... .. . ... : ... .. . ... : ... .. . ... : E-4 00 . ...
ROW 1E : ... .. . ... : ... .. . ... : ... .. . ... : 2-# 0A . ... : D#4 00 . ...
ROW 1F : ... .. . ... : ... .. . ... : ... .. . ... : ... .. . ... : ... .. . ...
ROW 20 : ... .. . ... : ... .. . ... : ... .. . ... : 7-# 09 . ... : ... .. . ...
ROW 21 : C-5 08 . ... : C-5 0D . ... : ... .. . ... : 2-# 09 . ... : ... .. . ...
ROW 22 : C#5 08 . ... : C#5 0D . ... : ... .. . ... : ... .. . ... : ... .. . ...
ROW 23 : D-5 08 . ... : D-5 0D . ... : ... .. . ... : ... .. . ... : ... .. . ...
ROW 24 : D#5 08 . ... : D#5 0D . ... : ... .. . ... : 2-# 09 . ... : C-4 00 . ...
ROW 25 : ... .. . ... : ... .. . ... : ... .. . ... : ... .. . ... : ... .. . ...
ROW 26 : ... .. . ... : ... .. . ... : ... .. . ... : 7-# 09 . ... : ... .. . ...
ROW 27 : ... .. . ... : ... .. . ... : ... .. . ... : ... .. . ... : C-4 00 . ...
ROW 28 : ... .. . ... : ... .. . ... : ... .. . ... : ... .. . ... : ... .. . ...
ROW 29 : ... .. . ... : ... .. . ... : ... .. . ... : 7-# 09 . ... : ... .. . ...
ROW 2A : ... .. . ... : ... .. . ... : ... .. . ... : 9-# 09 . ... : D#4 00 . ...
ROW 2B : ... .. . ... : ... .. . ... : ... .. . ... : 2-# 09 . ... : ... .. . ...
ROW 2C : ... .. . ... : ... .. . ... : ... .. . ... : 5-# 09 . ... : ... .. . ...
ROW 2D : ... .. . ... : ... .. . ... : ... .. . ... : 9-# 09 . ... : ... .. . ...
ROW 2E : ... .. . ... : ... .. . ... : ... .. . ... : ... .. . ... : ... .. . ...
ROW 2F : D-5 08 . ... : D-5 0D . ... : ... .. . ... : ... .. . ... : C-4 00 . ...

PATTERN 01
ROW 00 : C-5 08 . ... : C-5 0D . ... : A#3 00 . ... : ... .. . ... : ... .. . ...
ROW 01 : ... .. . ... : ... .. . ... : ... .. . ... : ... .. . ... : ... .. . ...
ROW 02 : B-4 08 . ... : B-4 0D . ... : ... .. . ... : ... .. . ... : ... .. . ...
ROW 03 : G#4 08 . ... : G#4 0D . ... : ... .. . ... : ... .. . ... : ... .. . ...
ROW 04 : ... .. . ... : ... .. . ... : ... .. . ... : ... .. . ... : ... .. . ...
ROW 05 : G-4 08 . ... : G-4 0D . ... : ... .. . ... : ... .. . ... : ... .. . ...
ROW 06 : B-4 08 . ... : B-4 0D . ... : ... .. . ... : ... .. . ... : ... .. . ...
ROW 07 : ... .. . ... : ... .. . ... : ... .. . ... : ... .. . ... : ... .. . ...
ROW 08 : G#4 08 . ... : G#4 0D . ... : ... .. . ... : ... .. . ... : ... .. . ...
ROW 09 : F-4 08 . ... : F-4 0D . ... : ... .. . ... : ... .. . ... : ... .. . ...
ROW 0A : ... .. . ... : ... .. . ... : ... .. . ... : ... .. . ... : ... .. . ...
ROW 0B : G-4 08 . ... : G-4 0D . ... : ... .. . ... : ... .. . ... : ... .. . ...
ROW 0C : ... .. . ... : ... .. . ... : ... .. . ... : ... .. . ... : ... .. . ...
ROW 0D : ... .. . ... : ... .. . ... : ... .. . ... : ... .. . ... : ... .. . ...
ROW 0E : ... .. . ... : ... .. . ... : ... .. . ... : ... .. . ... : ... .. . ...
ROW 0F : ... .. . ... : ... .. . ... : ... .. . ... : ... .. . ... : ... .. . ...
ROW 10 : ... .. . ... : ... .. . ... : ... .. . ... : ... .. . ... : ... .. . ...
ROW 11 : ... .. . ... : ... .. . ... : ... .. . ... : ... .. . ... : ... .. . ...
ROW 12 : ... .. . ... : ... .. . ... : ... .. . ... : ... .. . ... : ... .. . ...
ROW 13 : ... .. . ... : ... .. . ... : ... .. . ... : ... .. . ... : ... .. . ...
ROW 14 : ... .. . ... : ... .. . ... : ... .. . ... : ... .. . ... : ... .. . ...
ROW 15 : ... .. . ... : ... .. . ... : C-4 00 . ... : ... .. . ... : ... .. . ...
ROW 16 : ... .. . ... : ... .. . ... : ... .. . ... : ... .. . ... : ... .. . ...
ROW 17 : ... .. . ... : ... .. . ... : A#3 00 . ... : ... .. . ... : ... .. . ...
ROW 18 : F-4 08 . ... : F-4 0D . ... : A-3 00 . ... : ... .. . ... : ... .. . ...
ROW 19 : ... .. . ... : ... .. . ... : ... .. . ... : ... .. . ... : ... .. . ...
ROW 1A : G#4 08 . ... : G#4 0D . ... : ... .. . ... : ... .. . ... : ... .. . ...
ROW 1B : G-4 08 . ... : G-4 0D . ... : ... .. . ... : ... .. . ... : ... .. . ...
ROW 1C : ... .. . ... : ... .. . ... : ... .. . ... : ... .. . ... : ... .. . ...
ROW 1D : F#4 08 . ... : F#4 0D . ... : ... .. . ... : ... .. . ... : ... .. . ...
ROW 1E : G-4 08 . ... : G-4 0D . ... : ... .. . ... : ... .. . ... : ... .. . ...
ROW 1F : ... .. . ... : ... .. . ... : ... .. . ... : ... .. . ... : ... .. . ...
ROW 20 : ... .. . ... : ... .. . ... : ... .. . ... : ... .. . ... : ... .. . ...
ROW 21 : D#4 08 . ... : D#4 0D . ... : ... .. . ... : ... .. . ... : ... .. . ...
ROW 22 : ... .. . ... : ... .. . ... : ... .. . ... : ... .. . ... : ... .. . ...
ROW 23 : ... .. . ... : ... .. . ... : ... .. . ... : ... .. . ... : ... .. . ...
ROW 24 : ... .. . ... : ... .. . ... : G#3 00 . ... : ... .. . ... : ... .. . ...
ROW 25 : ... .. . ... : ... .. . ... : ... .. . ... : ... .. . ... : ... .. . ...
ROW 26 : ... .. . ... : ... .. . ... : ... .. . ... : ... .. . ... : ... .. . ...
ROW 27 : D-4 08 . ... : D-4 0D . ... : ... .. . ... : ... .. . ... : ... .. . ...
ROW 28 : ... .. . ... : ... .. . ... : ... .. . ... : ... .. . ... : ... .. . ...
ROW 29 : ... .. . ... : ... .. . ... : ... .. . ... : ... .. . ... : ... .. . ...
ROW 2A : ... .. . ... : ... .. . ... : G-3 00 . ... : ... .. . ... : ... .. . ...
ROW 2B : ... .. . ... : ... .. . ... : ... .. . ... : ... .. . ... : ... .. . ...
ROW 2C : ... .. . ... : ... .. . ... : ... .. . ... : ... .. . ... : ... .. . ...
ROW 2D : ... .. . ... : ... .. . ... : ... .. . ... : ... .. . ... : ... .. . ...
ROW 2E : ... .. . ... : ... .. . ... : ... .. . ... : ... .. . ... : ... .. . ...
ROW 2F : ... .. . ... : ... .. . ... : ... .. . ... : ... .. . ... : ... .. . ...

PATTERN 02
ROW 00 : G-3 08 . ... : C-3 0B . ... : ... .. . ... : ... .. . ... : ... .. . ...
ROW 01 : ... .. . ... : ... .. . ... : ... .. . ... : ... .. . ... : ... .. . ...
ROW 02 : ... .. . ... : ... .. . ... : ... .. . ... : ... .. . ... : ... .. . ...
ROW 03 : ... .. . ... : ... .. . ... : ... .. . ... : ... .. . ... : ... .. . ...
ROW 04 : ... .. . ... : ... .. . ... : ... .. . ... : ... .. . ... : ... .. . ...
ROW 05 : ... .. . ... : ... .. . ... : ... .. . ... : ... .. . ... : ... .. . ...
ROW 06 : ... .. . ... : ... .. . ... : ... .. . ... : ... .. . ... : ... .. . ...
ROW 07 : ... .. . ... : ... .. . ... : ... .. . ... : ... .. . ... : ... .. . ...
ROW 08 : ... .. . ... : ... .. . ... : ... .. . ... : ... .. . ... : ... .. . ...
ROW 09 : ... .. . ... : ... .. . ... : ... .. . ... : ... .. . ... : ... .. . ...
ROW 0A : ... .. . ... : ... .. . ... : ... .. . ... : ... .. . ... : ... .. . ...
ROW 0B : ... .. . ... : ... .. . ... : ... .. . ... : ... .. . ... : ... .. . ...
ROW 0C : ... .. . ... : ... .. . ... : ... .. . ... : ... .. . ... : ... .. . ...
ROW 0D : ... .. . ... : ... .. . ... : ... .. . ... : ... .. . ... : ... .. . ...
ROW 0E : ... .. . ... : ... .. . ... : ... .. . ... : ... .. . ... : ... .. . ...
ROW 0F : ... .. . ... : ... .. . ... : ... .. . ... : ... .. . ... : ... .. . ...
ROW 10 : ... .. . ... : ... .. . ... : ... .. . ... : ... .. . ... : ... .. . ...
ROW 11 : ... .. . ... : ... .. . ... : ... .. . ... : ... .. . ... : ... .. . ...
ROW 12 : ... .. . ... : ... .. . ... : ... .. . ... : ... .. . ... : ... .. . ...
ROW 13 : ... .. . ... : ... .. . ... : ... .. . ... : ... .. . ... : ... .. . ...
ROW 14 : ... .. . ... : ... .. . ... : ... .. . ... : ... .. . ... : ... .. . ...
ROW 15 : ... .. . ... : ... .. . ... : ... .. . ... : ... .. . ... : ... .. . ...
ROW 16 : ... .. . ... : ... .. . ... : ... .. . ... : ... .. . ... : ... .. . ...
ROW 17 : ... .. . ... : ... .. . ... : ... .. . ... : ... .. . ... : ... .. . ...
ROW 18 : F#3 08 . ... : A#3 0B . ... : ... .. . ... : ... .. . ... : ... .. . ...
ROW 19 : ... .. . ... : ... .. . ... : ... .. . ... : ... .. . ... : ... .. . ...
ROW 1A : ... .. . ... : ... .. . ... : ... .. . ... : ... .. . ... : ... .. . ...
ROW 1B : ... .. . ... : ... .. . ... : ... .. . ... : ... .. . ... : ... .. . ...
ROW 1C : ... .. . ... : ... .. . ... : ... .. . ... : ... .. . ... : ... .. . ...
ROW 1D : ... .. . ... : ... .. . ... : ... .. . ... : ... .. . ... : ... .. . ...
ROW 1E : ... .. . ... : ... .. . ... : ... .. . ... : ... .. . ... : ... .. . ...
ROW 1F : ... .. . ... : ... .. . ... : ... .. . ... : ... .. . ... : ... .. . ...
ROW 20 : ... .. . ... : ... .. . ... : ... .. . ... : ... .. . ... : ... .. . ...
ROW 21 : ... .. . ... : ... .. . ... : ... .. . ... : ... .. . ... : ... .. . ...
ROW 22 : ... .. . ... : ... .. . ... : ... .. . ... : ... .. . ... : ... .. . ...
ROW 23 : ... .. . ... : ... .. . ... : ... .. . ... : ... .. . ... : ... .. . ...
ROW 24 : ... .. . ... : ... .. . ... : ... .. . ... : ... .. . ... : ... .. . ...
ROW 25 : ... .. . ... : ... .. . ... : ... .. . ... : ... .. . ... : ... .. . ...
ROW 26 : ... .. . ... : ... .. . ... : ... .. . ... : ... .. . ... : ... .. . ...
ROW 27 : ... .. . ... : ... .. . ... : ... .. . ... : ... .. . ... : ... .. . ...
ROW 28 : ... .. . ... : ... .. . ... : ... .. . ... : ... .. . ... : ... .. . ...
ROW 29 : ... .. . ... : ... .. . ... : ... .. . ... : ... .. . ... : ... .. . ...
ROW 2A : ... .. . ... : ... .. . ... : ... .. . ... : ... .. . ... : ... .. . ...
ROW 2B : ... .. . ... : ... .. . ... : ... .. . ... : ... .. . ... : ... .. . ...
ROW 2C : ... .. . ... : ... .. . ... : ... .. . ... : ... .. . ... : ... .. . ...
ROW 2D : ... .. . ... : ... .. . ... : ... .. . ... : ... .. . ... : ... .. . ...
ROW 2E : ... .. . ... : ... .. . ... : ... .. . ... : ... .. . ... : ... .. . ...
ROW 2F : ... .. . ... : ... .. . ... : ... .. . ... : ... .. . ... : ... .. . ...

PATTERN 03
ROW 00 : F-3 08 . ... : A-3 0B . ... : ... .. . ... : ... .. . ... : ... .. . ...
ROW 01 : ... .. . ... : ... .. . ... : ... .. . ... : ... .. . ... : ... .. . ...
ROW 02 : ... .. . ... : ... .. . ... : ... .. . ... : ... .. . ... : ... .. . ...
ROW 03 : ... .. . ... : ... .. . ... : ... .. . ... : ... .. . ... : ... .. . ...
ROW 04 : ... .. . ... : ... .. . ... : ... .. . ... : ... .. . ... : ... .. . ...
ROW 05 : ... .. . ... : ... .. . ... : ... .. . ... : ... .. . ... : ... .. . ...
ROW 06 : ... .. . ... : ... .. . ... : ... .. . ... : ... .. . ... : ... .. . ...
ROW 07 : ... .. . ... : ... .. . ... : ... .. . ... : ... .. . ... : ... .. . ...
ROW 08 : ... .. . ... : ... .. . ... : ... .. . ... : ... .. . ... : ... .. . ...
ROW 09 : ... .. . ... : ... .. . ... : ... .. . ... : ... .. . ... : ... .. . ...
ROW 0A : ... .. . ... : ... .. . ... : ... .. . ... : ... .. . ... : ... .. . ...
ROW 0B : ... .. . ... : ... .. . ... : ... .. . ... : ... .. . ... : ... .. . ...
ROW 0C : ... .. . ... : ... .. . ... : ... .. . ... : ... .. . ... : ... .. . ...
ROW 0D : ... .. . ... : ... .. . ... : ... .. . ... : ... .. . ... : ... .. . ...
ROW 0E : ... .. . ... : ... .. . ... : ... .. . ... : ... .. . ... : ... .. . ...
ROW 0F : ... .. . ... : ... .. . ... : ... .. . ... : ... .. . ... : ... .. . ...
ROW 10 : ... .. . ... : ... .. . ... : ... .. . ... : ... .. . ... : ... .. . ...
ROW 11 : ... .. . ... : ... .. . ... : ... .. . ... : ... .. . ... : ... .. . ...
ROW 12 : ... .. . ... : ... .. . ... : ... .. . ... : ... .. . ... : ... .. . ...
ROW 13 : ... .. . ... : ... .. . ... : ... .. . ... : ... .. . ... : ... .. . ...
ROW 14 : ... .. . ... : ... .. . ... : ... .. . ... : ... .. . ... : ... .. . ...
ROW 15 : ... .. . ... : A#3 0B . ... : ... .. . ... : ... .. . ... : ... .. . ...
ROW 16 : ... .. . ... : ... .. . ... : ... .. . ... : ... .. . ... : ... .. . ...
ROW 17 : ... .. . ... : A-3 0B . ... : ... .. . ... : ... .. . ... : ... .. . ...
ROW 18 : E-3 08 . ... : G#3 0B . ... : ... .. . ... : ... .. . ... : ... .. . ...
ROW 19 : ... .. . ... : ... .. . ... : ... .. . ... : ... .. . ... : ... .. . ...
ROW 1A : ... .. . ... : ... .. . ... : ... .. . ... : ... .. . ... : ... .. . ...
ROW 1B : ... .. . ... : ... .. . ... : ... .. . ... : ... .. . ... : ... .. . ...
ROW 1C : ... .. . ... : ... .. . ... : ... .. . ... : ... .. . ... : ... .. . ...
ROW 1D : ... .. . ... : ... .. . ... : ... .. . ... : ... .. . ... : ... .. . ...
ROW 1E : ... .. . ... : ... .. . ... : ... .. . ... : ... .. . ... : ... .. . ...
ROW 1F : ... .. . ... : ... .. . ... : ... .. . ... : ... .. . ... : ... .. . ...
ROW 20 : ... .. . ... : ... .. . ... : ... .. . ... : ... .. . ... : ... .. . ...
ROW 21 : ... .. . ... : ... .. . ... : ... .. . ... : ... .. . ... : ... .. . ...
ROW 22 : ... .. . ... : ... .. . ... : ... .. . ... : ... .. . ... : ... .. . ...
ROW 23 : ... .. . ... : ... .. . ... : ... .. . ... : ... .. . ... : ... .. . ...
ROW 24 : D#3 08 . ... : G-3 0B . ... : ... .. . ... : ... .. . ... : ... .. . ...
ROW 25 : ... .. . ... : ... .. . ... : ... .. . ... : ... .. . ... : ... .. . ...
ROW 26 : ... .. . ... : ... .. . ... : ... .. . ... : ... .. . ... : ... .. . ...
ROW 27 : ... .. . ... : ... .. . ... : ... .. . ... : ... .. . ... : ... .. . ...
ROW 28 : ... .. . ... : ... .. . ... : ... .. . ... : ... .. . ... : ... .. . ...
ROW 29 : ... .. . ... : ... .. . ... : ... .. . ... : ... .. . ... : ... .. . ...
ROW 2A : F-3 08 . ... : B-2 08 . ... : ... .. . ... : ... .. . ... : ... .. . ...
ROW 2B : ... .. . ... : ... .. . ... : ... .. . ... : ... .. . ... : ... .. . ...
ROW 2C : ... .. . ... : ... .. . ... : ... .. . ... : ... .. . ... : ... .. . ...
ROW 2D : ... .. . ... : ... .. . ... : ... .. . ... : ... .. . ... : ... .. . ...
ROW 2E : ... .. . ... : ... .. . ... : ... .. . ... : ... .. . ... : ... .. . ...
ROW 2F : ... .. . ... : ... .. . ... : ... .. . ... : ... .. . ... : ... .. . ...

TRACK  36   6 150 "game over"
COLUMNS : 1 1 1 1 1

ORDER 00 : 00 00 00 00 00

PATTERN 00
ROW 00 : B-4 07 . ... : F#3 07 . ... : B-3 .. . ... : ... .. . ... : ... .. . ...
ROW 01 : ... .. . ... : ... .. . ... : ... .. . ... : ... .. . ... : ... .. . ...
ROW 02 : C-5 07 . ... : G-3 07 . ... : C-4 .. . ... : ... .. . ... : ... .. . ...
ROW 03 : ... .. . ... : ... .. . ... : ... .. . ... : ... .. . ... : ... .. . ...
ROW 04 : A-4 07 . ... : E-3 07 . ... : A-3 .. . ... : ... .. . ... : ... .. . ...
ROW 05 : ... .. . ... : ... .. . ... : ... .. . ... : ... .. . ... : ... .. . ...
ROW 06 : B-4 07 . ... : F#3 07 . ... : B-3 .. . ... : ... .. . ... : ... .. . ...
ROW 07 : ... .. . ... : ... .. . ... : ... .. . ... : ... .. . ... : ... .. . ...
ROW 08 : G#4 07 . ... : D#3 07 . ... : G#3 .. . ... : ... .. . ... : ... .. . ...
ROW 09 : ... .. . ... : ... .. . ... : ... .. . ... : ... .. . ... : ... .. . ...
ROW 0A : A-4 07 . ... : E-3 07 . ... : A-3 .. . ... : ... .. . ... : ... .. . ...
ROW 0B : ... .. . ... : ... .. . ... : ... .. . ... : ... .. . ... : ... .. . ...
ROW 0C : G#4 07 . ... : D#3 07 . ... : G#3 .. . ... : ... .. . ... : ... .. . ...
ROW 0D : ... .. . ... : ... .. . ... : ... .. . ... : ... .. . ... : ... .. . ...
ROW 0E : F-4 07 . ... : C-3 07 . ... : F-3 .. . ... : ... .. . ... : ... .. . ...
ROW 0F : ... .. . ... : ... .. . ... : ... .. . ... : ... .. . ... : ... .. . ...
ROW 10 : E-4 07 . ... : B-2 07 . ... : E-3 .. . ... : ... .. . ... : ... .. . ...
ROW 11 : F-4 07 . ... : C-3 07 . ... : F-3 .. . ... : ... .. . ... : ... .. . ...
ROW 12 : E-4 07 . ... : B-2 07 . ... : E-3 .. . ... : ... .. . ... : ... .. . ...
ROW 13 : D#4 07 . ... : A#2 07 . ... : D#3 .. . ... : ... .. . ... : ... .. . ...
ROW 14 : E-4 07 . ... : B-2 07 . ... : E-3 .. . ... : ... .. . ... : ... .. . ...
ROW 15 : ... .. . ... : ... .. . ... : ... .. . ... : ... .. . ... : ... .. . ...
ROW 16 : ... .. . ... : ... .. . ... : ... .. . ... : ... .. . ... : ... .. . ...
ROW 17 : ... .. . ... : ... .. . ... : ... .. . ... : ... .. . ... : ... .. . ...
ROW 18 : ... .. . ... : ... .. . ... : ... .. . ... : ... .. . ... : ... .. . ...
ROW 19 : ... .. . ... : ... .. . ... : ... .. . ... : ... .. . ... : ... .. . ...
ROW 1A : ... .. . ... : ... .. . ... : ... .. . ... : ... .. . ... : ... .. . ...
ROW 1B : ... .. . ... : ... .. . ... : ... .. . ... : ... .. . ... : ... .. . ...
ROW 1C : ... .. . ... : ... .. . ... : ... .. . ... : ... .. . ... : ... .. . ...
ROW 1D : ... .. . ... : ... .. . ... : ... .. . ... : ... .. . ... : ... .. . ...
ROW 1E : ... .. . ... : ... .. . ... : ... .. . ... : ... .. . ... : ... .. . ...
ROW 1F : ... .. . ... : ... .. . ... : ... .. . ... : ... .. . ... : ... .. . ...
ROW 20 : --- .. . ... : --- .. . ... : --- .. . ... : ... .. . ... : ... .. . ...
ROW 21 : ... .. . ... : ... .. . ... : ... .. . ... : ... .. . ... : ... .. . ...
ROW 22 : ... .. . ... : ... .. . ... : ... .. . ... : ... .. . ... : ... .. . ...
ROW 23 : ... .. . ... : ... .. . ... : ... .. . ... : ... .. . ... : ... .. . ...

# End of export
